<svg width="175" height="165" viewBox="0 0 175 165" fill="none" xmlns="http://www.w3.org/2000/svg">
<path d="M35.2344 134.392L85.712 137.792L85.6677 70.3587L35.2344 87.9253V134.392Z" fill="#8597C0"/>
<path d="M35.2344 87.9248L85.6677 96.9915V164.425L35.2344 153.658V87.9248Z" fill="#E4EBFB"/>
<path d="M140.633 133.259L85.6661 137.792V70.3587L140.633 78.8587V133.259Z" fill="#8CA4DC"/>
<path d="M140.633 78.8594L85.6661 96.9927V164.426L140.633 146.859V78.8594Z" fill="#D0DCF8"/>
<g filter="url(#filter0_d_7185_61370)">
<path d="M35.2333 87.9248L85.6667 96.9915L64.7 119.658L12 107.758L35.2333 87.9248Z" fill="#CAD8F6"/>
</g>
<path d="M110.601 52.2256L165.001 59.5923L140.635 78.8589L85.668 70.3589L110.601 52.2256Z" fill="#CAD8F6"/>
<path d="M61.868 54.4922L13.1346 69.2255L35.2346 87.9255L85.668 70.3589L61.868 54.4922Z" fill="#CAD8F6"/>
<g filter="url(#filter1_d_7185_61370)">
<path d="M140.634 78.8594L85.6674 96.9927L107.767 115.126L163.301 94.1594L140.634 78.8594Z" fill="#CAD8F6"/>
</g>
<ellipse cx="107.2" cy="124.192" rx="2.26667" ry="2.83333" fill="#52648F"/>
<ellipse cx="123.064" cy="119.659" rx="2.26667" ry="2.83333" fill="#52648F"/>
<path d="M111.867 137.226C111.867 137.226 113.378 134.226 116.023 133.066C118.667 131.907 120.934 133.816 120.934 133.816" stroke="#52648F" stroke-width="1.13333" stroke-linecap="round"/>
<path d="M113.83 3.87751C112.696 5.25739 110.6 5.34039 110.24 5.11274C110.033 4.77373 109.62 2.73087 110.753 1.35099C111.886 -0.028887 113.83 0.066203 114.343 0.115762C114.343 0.461747 114.963 2.49763 113.83 3.87751Z" fill="#52648F"/>
<path d="M106.985 5.57255C108.118 4.19267 110.215 4.10966 110.575 4.33732C110.781 4.67633 111.195 6.71919 110.062 8.09907C108.929 9.47894 106.985 9.38385 106.472 9.33429C106.472 8.98831 105.852 6.95242 106.985 5.57255Z" fill="#52648F"/>
<path d="M110.892 4.28692C110.489 5.13509 109.246 5.38745 108.115 4.8506C106.984 4.31374 106.394 3.19096 106.796 2.3428C107.199 1.49463 108.442 1.24227 109.573 1.77912C110.704 2.31598 111.294 3.43876 110.892 4.28692Z" fill="#52648F"/>
<path d="M108.169 2.48432C108.169 3.11025 107.662 3.61766 107.036 3.61766C106.41 3.61766 105.902 3.11025 105.902 2.48432C105.902 1.8584 106.41 1.35099 107.036 1.35099C107.662 1.35099 108.169 1.8584 108.169 2.48432Z" fill="#52648F"/>
<path d="M114 5.90706C114 6.84594 113.239 7.60706 112.3 7.60706C111.361 7.60706 110.6 6.84594 110.6 5.90706C110.6 4.96817 111.361 4.20706 112.3 4.20706C113.239 4.20706 114 4.96817 114 5.90706Z" fill="#52648F"/>
<path d="M86.8896 92.4592C86.8896 92.4592 76.6851 89.0592 77.8229 77.1592C78.9607 65.2592 106.718 61.2926 106.156 46.5592C105.594 31.8259 87.2165 34.6592 88.5896 46.5592C89.9627 58.4592 110.671 66.1811 124.861 60.7259C132.537 57.7745 141.69 46.8732 141.294 36.9259C140.165 8.59258 112.961 6.89258 112.961 6.89258" stroke="#52648F" stroke-width="1.13333" stroke-dasharray="3.4 3.4"/>
<circle cx="83.9661" cy="18.7923" r="2.55" stroke="#52648F" stroke-width="0.566667"/>
<circle cx="70.9307" cy="31.8262" r="1.98333" stroke="#52648F" stroke-width="0.566667"/>
<defs>
<filter id="filter0_d_7185_61370" x="0.666667" y="81.1248" width="96.3346" height="54.4" filterUnits="userSpaceOnUse" color-interpolation-filters="sRGB">
<feFlood flood-opacity="0" result="BackgroundImageFix"/>
<feColorMatrix in="SourceAlpha" type="matrix" values="0 0 0 0 0 0 0 0 0 0 0 0 0 0 0 0 0 0 127 0" result="hardAlpha"/>
<feOffset dy="4.53333"/>
<feGaussianBlur stdDeviation="5.66667"/>
<feComposite in2="hardAlpha" operator="out"/>
<feColorMatrix type="matrix" values="0 0 0 0 0 0 0 0 0 0 0 0 0 0 0 0 0 0 0.1 0"/>
<feBlend mode="normal" in2="BackgroundImageFix" result="effect1_dropShadow_7185_61370"/>
<feBlend mode="normal" in="SourceGraphic" in2="effect1_dropShadow_7185_61370" result="shape"/>
</filter>
<filter id="filter1_d_7185_61370" x="74.3346" y="72.0594" width="100.299" height="58.9333" filterUnits="userSpaceOnUse" color-interpolation-filters="sRGB">
<feFlood flood-opacity="0" result="BackgroundImageFix"/>
<feColorMatrix in="SourceAlpha" type="matrix" values="0 0 0 0 0 0 0 0 0 0 0 0 0 0 0 0 0 0 127 0" result="hardAlpha"/>
<feOffset dy="4.53333"/>
<feGaussianBlur stdDeviation="5.66667"/>
<feComposite in2="hardAlpha" operator="out"/>
<feColorMatrix type="matrix" values="0 0 0 0 0 0 0 0 0 0 0 0 0 0 0 0 0 0 0.1 0"/>
<feBlend mode="normal" in2="BackgroundImageFix" result="effect1_dropShadow_7185_61370"/>
<feBlend mode="normal" in="SourceGraphic" in2="effect1_dropShadow_7185_61370" result="shape"/>
</filter>
</defs>
</svg>
