<svg width="90" height="50" viewBox="0 0 90 50" fill="none" xmlns="http://www.w3.org/2000/svg">
    <path fill-rule="evenodd" clip-rule="evenodd" d="M18.5114 49.9998H9.62346L22.3878 9.99995H0L2.74348 2.09068C3.1776 0.839151 4.35688 0 5.68156 0H27.5219H27.5282H29.5687H36.4161H58.5348L55.2347 8.06755C54.7566 9.23633 53.6192 9.99995 52.3564 9.99995H33.2158L20.9693 48.2666C20.6351 49.3145 19.6418 50.001 18.5114 49.9998ZM67.306 13.4373H74.2102C75.5465 13.4373 76.7335 14.291 77.1585 15.558L82.4776 31.4138L88.0305 33.6008C89.5748 34.209 90.3693 35.9228 89.8355 37.4944L85.5881 49.9996H56.589L67.306 13.4373ZM37.8609 13.4373H64.4694L61.3223 23.4372H32.0031L34.9434 15.4703C35.3943 14.2486 36.5586 13.4373 37.8609 13.4373ZM60.3705 26.5615H33.4821C32.1701 26.5615 30.9992 27.3849 30.5555 28.6196L27.5891 36.874H57.2184L60.3705 26.5615ZM29.3071 39.9997H56.2725L53.4356 49.9996H23.4909L26.3848 42.0462C26.8318 40.8175 27.9997 39.9997 29.3071 39.9997Z" fill="url(#paint0_linear_0_3)"/>
    <defs>
        <linearGradient id="paint0_linear_0_3" x1="44.904" y1="1.8851e-06" x2="44.904" y2="49.9998" gradientUnits="userSpaceOnUse">
            <stop stop-color="#346E60"/>
            <stop offset="1" stop-color="#F27C4A"/>
        </linearGradient>
    </defs>
</svg>
