<svg width="0" height="0" class="hidden">
    <symbol fill="none" xmlns="http://www.w3.org/2000/svg" viewBox="0 0 24 24" id="chevron-right">
        <path d="M9 18L15 12L9 6" stroke="currentColor" stroke-width="2" stroke-linecap="round"
              stroke-linejoin="round"/>
    </symbol>
    <symbol fill="none" xmlns="http://www.w3.org/2000/svg" viewBox="0 0 20 20" id="user">
        <path d="M9.99922 12.4C12.6502 12.4 14.7992 10.251 14.7992 7.59999C14.7992 4.94902 12.6502 2.79999 9.99922 2.79999C7.34825 2.79999 5.19922 4.94902 5.19922 7.59999C5.19922 10.251 7.34825 12.4 9.99922 12.4Z"
              stroke="currentColor" stroke-width="1.2" stroke-miterlimit="10"/>
        <path d="M2.72266 16.6C3.45986 15.3229 4.52028 14.2623 5.79732 13.5249C7.07436 12.7876 8.52302 12.3994 9.99766 12.3994C11.4723 12.3994 12.921 12.7876 14.198 13.5249C15.475 14.2623 16.5355 15.3229 17.2727 16.6"
              stroke="currentColor" stroke-width="1.2" stroke-linecap="round" stroke-linejoin="round"/>
    </symbol>
    <symbol viewBox="0 0 24 24" fill="none" xmlns="http://www.w3.org/2000/svg" id="dotsThreeCircle">
        <path d="M12 21C16.9706 21 21 16.9706 21 12C21 7.02944 16.9706 3 12 3C7.02944 3 3 7.02944 3 12C3 16.9706 7.02944 21 12 21Z"
              stroke="currentColor" stroke-width="2" stroke-miterlimit="10"/>
        <path d="M12 13.125C12.6213 13.125 13.125 12.6213 13.125 12C13.125 11.3787 12.6213 10.875 12 10.875C11.3787 10.875 10.875 11.3787 10.875 12C10.875 12.6213 11.3787 13.125 12 13.125Z"
              fill="currentColor"/>
        <path d="M16.5 13.125C17.1213 13.125 17.625 12.6213 17.625 12C17.625 11.3787 17.1213 10.875 16.5 10.875C15.8787 10.875 15.375 11.3787 15.375 12C15.375 12.6213 15.8787 13.125 16.5 13.125Z"
              fill="currentColor"/>
        <path d="M7.5 13.125C8.12132 13.125 8.625 12.6213 8.625 12C8.625 11.3787 8.12132 10.875 7.5 10.875C6.87868 10.875 6.375 11.3787 6.375 12C6.375 12.6213 6.87868 13.125 7.5 13.125Z"
              fill="currentColor"/>
    </symbol>
    <symbol fill="none" xmlns="http://www.w3.org/2000/svg" viewBox="0 0 8 7" id="select">
        <path d="M4.74287 6.05753L7.785 1.61386C7.92559 1.40864 8 1.20187 8 1.03C8 0.697728 7.73333 0.492187 7.28695 0.492187L0.712013 0.492187C0.266155 0.492187 -8.97316e-09 0.697469 -2.34633e-08 1.02896C-3.09871e-08 1.20109 0.0744714 1.40456 0.215449 1.61023L3.25752 6.05598C3.45348 6.34188 3.71717 6.50021 4.00036 6.50021C4.28335 6.50028 4.54698 6.34376 4.74287 6.05753Z"
              fill="currentColor"/>
    </symbol>
    <symbol fill="none" xmlns="http://www.w3.org/2000/svg" viewBox="0 0 24 25" id="arrowsDownUp">
        <path d="M10.5 17L7.5 20L4.5 17" stroke="currentColor" stroke-width="1.5" stroke-linecap="round"
              stroke-linejoin="round"/>
        <path d="M7.5 5V20" stroke="currentColor" stroke-width="1.5" stroke-linecap="round" stroke-linejoin="round"/>
        <path d="M13.5 8L16.5 5L19.5 8" stroke="currentColor" stroke-width="1.5" stroke-linecap="round"
              stroke-linejoin="round"/>
        <path d="M16.5 20V5" stroke="currentColor" stroke-width="1.5" stroke-linecap="round" stroke-linejoin="round"/>
    </symbol>
    <symbol fill="none" xmlns="http://www.w3.org/2000/svg" viewBox="0 0 24 24" id="cleaner">
        <path fill-rule="evenodd" clip-rule="evenodd"
              d="M20 2.99982H4C3.73478 2.99982 3.48043 3.10517 3.29289 3.29271C3.10536 3.48025 3 3.7346 3 3.99982V6.58982C3 7.11282 3.213 7.62682 3.583 7.99682L9 13.4138V18.9998C9 19.3788 9.214 19.7248 9.553 19.8948L11.0098 20.6232C10.369 19.5662 10.0001 18.326 10.0001 16.9996C10.0001 15.6801 10.3653 14.4458 11 13.3923V12.9998C11.0002 12.8685 10.9744 12.7384 10.9241 12.6171C10.8738 12.4957 10.8 12.3855 10.707 12.2928L4.997 6.58282L4.999 4.99982H19V6.58982L15.4051 10.1822C15.9175 10.0628 16.4514 9.99965 17.0001 9.99965C17.4424 9.99965 17.8752 10.0407 18.2947 10.1191L20.417 7.99682C20.787 7.62682 21 7.11282 21 6.58982V3.99982C21 3.7346 20.8946 3.48025 20.7071 3.29271C20.5196 3.10517 20.2652 2.99982 20 2.99982Z"
              fill="currentColor"/>
        <g clip-path="url(#clip0_7185_60954)">
            <path d="M16.8409 11.9546C14.138 11.9546 11.9531 14.1394 11.9531 16.8424C11.9531 19.5454 14.138 21.7302 16.8409 21.7302C19.5439 21.7302 21.7287 19.5454 21.7287 16.8424C21.7287 14.1394 19.5439 11.9546 16.8409 11.9546ZM18.9427 18.9442C18.8975 18.9895 18.8438 19.0254 18.7846 19.0499C18.7255 19.0745 18.6621 19.0871 18.5981 19.0871C18.5341 19.0871 18.4707 19.0745 18.4116 19.0499C18.3524 19.0254 18.2987 18.9895 18.2535 18.9442L16.8409 17.5316L15.4284 18.9442C15.337 19.0355 15.213 19.0869 15.0838 19.0869C14.9545 19.0869 14.8306 19.0355 14.7392 18.9442C14.6478 18.8528 14.5964 18.7288 14.5964 18.5996C14.5964 18.5356 14.609 18.4722 14.6335 18.4131C14.658 18.3539 14.6939 18.3002 14.7392 18.255L16.1518 16.8424L14.7392 15.4298C14.6478 15.3384 14.5964 15.2145 14.5964 15.0852C14.5964 14.956 14.6478 14.832 14.7392 14.7406C14.8306 14.6492 14.9545 14.5979 15.0838 14.5979C15.213 14.5979 15.337 14.6492 15.4284 14.7406L16.8409 16.1532L18.2535 14.7406C18.2988 14.6954 18.3525 14.6595 18.4116 14.635C18.4707 14.6105 18.5341 14.5979 18.5981 14.5979C18.6621 14.5979 18.7255 14.6105 18.7846 14.635C18.8437 14.6595 18.8974 14.6954 18.9427 14.7406C18.9879 14.7859 19.0238 14.8396 19.0483 14.8987C19.0728 14.9579 19.0854 15.0212 19.0854 15.0852C19.0854 15.1492 19.0728 15.2126 19.0483 15.2717C19.0238 15.3308 18.9879 15.3846 18.9427 15.4298L17.5301 16.8424L18.9427 18.255C19.1284 18.4407 19.1284 18.7535 18.9427 18.9442Z"
                  fill="currentColor"/>
        </g>
        <defs>
            <clipPath id="clip0_7185_60954">
                <rect width="14" height="14" fill="white" transform="translate(10 9.99969)"/>
            </clipPath>
        </defs>
    </symbol>
    <symbol viewBox="0 0 24 24" fill="none" xmlns="http://www.w3.org/2000/svg" id="alert">
        <path d="M10.2927 3.85996L1.82271 18C1.64807 18.3024 1.55567 18.6453 1.5547 18.9945C1.55372 19.3437 1.6442 19.6871 1.81713 19.9905C1.99007 20.2939 2.23943 20.5467 2.54041 20.7238C2.8414 20.9009 3.18351 20.9961 3.53271 21H20.4727C20.8219 20.9961 21.164 20.9009 21.465 20.7238C21.766 20.5467 22.0153 20.2939 22.1883 19.9905C22.3612 19.6871 22.4517 19.3437 22.4507 18.9945C22.4497 18.6453 22.3573 18.3024 22.1827 18L13.7127 3.85996C13.5344 3.56607 13.2834 3.32308 12.9839 3.15444C12.6844 2.98581 12.3464 2.89722 12.0027 2.89722C11.659 2.89722 11.321 2.98581 11.0215 3.15444C10.722 3.32308 10.471 3.56607 10.2927 3.85996V3.85996Z"
              stroke="currentColor" stroke-width="2" stroke-linecap="round" stroke-linejoin="round"/>
        <path d="M12 17H12.0112" stroke="currentColor" stroke-width="2" stroke-linecap="round" stroke-linejoin="round"/>
        <path d="M12 9V13" stroke="currentColor" stroke-width="2" stroke-linecap="round" stroke-linejoin="round"/>
    </symbol>
    <svg id="home" viewBox="0 0 24 24" fill="none" xmlns="http://www.w3.org/2000/svg">
        <path d="M14.25 19.5029V15.0029C14.25 14.804 14.171 14.6132 14.0303 14.4726C13.8897 14.3319 13.6989 14.2529 13.5 14.2529H10.5C10.3011 14.2529 10.1103 14.3319 9.96967 14.4726C9.82902 14.6132 9.75 14.804 9.75 15.0029V19.5029C9.75 19.7018 9.67098 19.8926 9.53033 20.0332C9.38968 20.1739 9.19891 20.2529 9 20.2529H4.5C4.30109 20.2529 4.11032 20.1739 3.96967 20.0332C3.82902 19.8926 3.75 19.7018 3.75 19.5029V10.831C3.75168 10.7272 3.77411 10.6248 3.81597 10.5298C3.85783 10.4348 3.91828 10.3492 3.99375 10.2779L11.4937 3.46226C11.632 3.33577 11.8126 3.26562 12 3.26562C12.1874 3.26562 12.368 3.33577 12.5062 3.46226L20.0062 10.2779C20.0817 10.3492 20.1422 10.4348 20.184 10.5298C20.2259 10.6248 20.2483 10.7272 20.25 10.831V19.5029C20.25 19.7018 20.171 19.8926 20.0303 20.0332C19.8897 20.1739 19.6989 20.2529 19.5 20.2529H15C14.8011 20.2529 14.6103 20.1739 14.4697 20.0332C14.329 19.8926 14.25 19.7018 14.25 19.5029Z" stroke="currentColor" stroke-linecap="round" stroke-linejoin="round"/>
    </svg>
    <symbol fill="none" xmlns="http://www.w3.org/2000/svg" viewBox="0 0 24 24" id="sklads">
        <path d="M3 18.75V5.25C3 5.05109 3.07902 4.86032 3.21967 4.71967C3.36032 4.57902 3.55109 4.5 3.75 4.5H20.25C20.4489 4.5 20.6397 4.57902 20.7803 4.71967C20.921 4.86032 21 5.05109 21 5.25V18.75"
              stroke="currentColor" stroke-linecap="round" stroke-linejoin="round"/>
        <path d="M1.5 18.75H22.5" stroke="currentColor" stroke-linecap="round" stroke-linejoin="round"/>
        <path d="M11.25 18.75V15.75H18V18.75" stroke="currentColor" stroke-linecap="round"
              stroke-linejoin="round"/>
        <path d="M6 18.75V7.5H18V12.75" stroke="currentColor" stroke-linecap="round" stroke-linejoin="round"/>
    </symbol>
    <svg id="send" viewBox="0 0 24 24" fill="none" xmlns="http://www.w3.org/2000/svg">
        <path d="M20.4947 4.46352L15.0009 20.3354C14.7666 21.0198 13.7916 21.001 13.5759 20.3073L11.3634 13.126C11.33 13.0086 11.2667 12.9019 11.1796 12.8165C11.0924 12.731 10.9846 12.6697 10.8666 12.6385L3.69468 10.426C3.00093 10.2104 2.98218 9.2354 3.66656 9.00102L19.5384 3.50727C19.6718 3.4604 19.8157 3.45217 19.9535 3.48353C20.0913 3.51489 20.2175 3.58456 20.3174 3.68451C20.4174 3.78446 20.4871 3.91062 20.5184 4.04845C20.5498 4.18628 20.5415 4.33017 20.4947 4.46352Z" stroke="currentColor" stroke-width="1" stroke-linecap="round" stroke-linejoin="round"/>
    </svg>
    <svg id="sendBold" viewBox="0 0 24 24" fill="none" xmlns="http://www.w3.org/2000/svg">
        <path d="M20.4947 4.46352L15.0009 20.3354C14.7666 21.0198 13.7916 21.001 13.5759 20.3073L11.3634 13.126C11.33 13.0086 11.2667 12.9019 11.1796 12.8165C11.0924 12.731 10.9846 12.6697 10.8666 12.6385L3.69468 10.426C3.00093 10.2104 2.98218 9.2354 3.66656 9.00102L19.5384 3.50727C19.6718 3.4604 19.8157 3.45217 19.9535 3.48353C20.0913 3.51489 20.2175 3.58456 20.3174 3.68451C20.4174 3.78446 20.4871 3.91062 20.5184 4.04845C20.5498 4.18628 20.5415 4.33017 20.4947 4.46352Z" stroke="currentColor" stroke-width="2" stroke-linecap="round" stroke-linejoin="round"/>
    </svg>
    <symbol fill="none" xmlns="http://www.w3.org/2000/svg" viewBox="0 0 24 24" id="containers">
        <path d="M19.5 4.5H4.5C3.67157 4.5 3 5.17157 3 6V18C3 18.8284 3.67157 19.5 4.5 19.5H19.5C20.3284 19.5 21 18.8284 21 18V6C21 5.17157 20.3284 4.5 19.5 4.5Z"
              stroke="currentColor" stroke-linecap="round" stroke-linejoin="round"/>
        <path d="M6 19.5L6 4.5" stroke="currentColor" stroke-linecap="round" stroke-linejoin="round"/>
        <path d="M18 19.5V4.5" stroke="currentColor" stroke-linecap="round" stroke-linejoin="round"/>
    </symbol>
    <symbol id="wallet" viewBox="0 0 24 24" fill="none" xmlns="http://www.w3.org/2000/svg">
        <path d="M3.75 6V18C3.75 18.3978 3.90804 18.7794 4.18934 19.0607C4.47064 19.342 4.85218 19.5 5.25 19.5H20.25C20.4489 19.5 20.6397 19.421 20.7803 19.2803C20.921 19.1397 21 18.9489 21 18.75V8.25C21 8.05109 20.921 7.86032 20.7803 7.71967C20.6397 7.57902 20.4489 7.5 20.25 7.5H5.25C4.85218 7.5 4.47064 7.34196 4.18934 7.06066C3.90804 6.77936 3.75 6.39782 3.75 6ZM3.75 6C3.75 5.60218 3.90804 5.22064 4.18934 4.93934C4.47064 4.65804 4.85218 4.5 5.25 4.5H18" stroke="currentColor" stroke-linecap="round" stroke-linejoin="round"/>
        <path d="M16.875 14.625C17.4963 14.625 18 14.1213 18 13.5C18 12.8787 17.4963 12.375 16.875 12.375C16.2537 12.375 15.75 12.8787 15.75 13.5C15.75 14.1213 16.2537 14.625 16.875 14.625Z"  fill="currentColor"/>
    </symbol>
    <symbol fill="none" xmlns="http://www.w3.org/2000/svg" viewBox="0 0 24 24" id="file">
        <path d="M18.75 21H5.25C5.05109 21 4.86032 20.921 4.71967 20.7803C4.57902 20.6397 4.5 20.4489 4.5 20.25V3.75C4.5 3.55109 4.57902 3.36032 4.71967 3.21967C4.86032 3.07902 5.05109 3 5.25 3H14.25L19.5 8.25V20.25C19.5 20.4489 19.421 20.6397 19.2803 20.7803C19.1397 20.921 18.9489 21 18.75 21Z"
              stroke="currentColor" stroke-linecap="round" stroke-linejoin="round"/>
        <path d="M14.25 3V8.25H19.5" stroke="currentColor" stroke-linecap="round" stroke-linejoin="round"/>
        <path d="M9 12.75H15" stroke="currentColor" stroke-linecap="round" stroke-linejoin="round"/>
        <path d="M9 15.75H15" stroke="currentColor" stroke-linecap="round" stroke-linejoin="round"/>
    </symbol>
    <symbol fill="none" xmlns="http://www.w3.org/2000/svg" viewBox="0 0 24 24" id="plusCircle">
        <path d="M12 22C17.5228 22 22 17.5228 22 12C22 6.47715 17.5228 2 12 2C6.47715 2 2 6.47715 2 12C2 17.5228 6.47715 22 12 22Z"
              stroke="currentColor" stroke-width="2" stroke-linecap="round" stroke-linejoin="round"/>
        <path d="M12 8V16" stroke="currentColor" stroke-width="2" stroke-linecap="round" stroke-linejoin="round"/>
        <path d="M8 12H16" stroke="currentColor" stroke-width="2" stroke-linecap="round" stroke-linejoin="round"/>
    </symbol>
    <symbol id="arrowRight"  viewBox="0 0 24 24" fill="none" xmlns="http://www.w3.org/2000/svg">
        <path d="M9 18L15 12L9 6" stroke="currentColor" stroke-width="2" stroke-linecap="round" stroke-linejoin="round"/>
    </symbol>
    <symbol fill="none" xmlns="http://www.w3.org/2000/svg" viewBox="0 0 24 24" id="setting">
        <path d="M12 16.5C14.4853 16.5 16.5 14.4853 16.5 12C16.5 9.51472 14.4853 7.5 12 7.5C9.51472 7.5 7.5 9.51472 7.5 12C7.5 14.4853 9.51472 16.5 12 16.5Z"
              stroke="currentColor" stroke-linecap="round" stroke-linejoin="round"/>
        <path d="M18.5071 7.56563C18.7328 7.88876 18.9304 8.23064 19.0978 8.58751L21.5259 9.93751C21.8291 11.2954 21.8323 12.7032 21.5353 14.0625L19.0978 15.4125C18.9304 15.7694 18.7328 16.1113 18.5071 16.4344L18.554 19.2188C17.525 20.1565 16.307 20.8629 14.9821 21.2906L12.5915 19.8563C12.1983 19.8844 11.8035 19.8844 11.4103 19.8563L9.02901 21.2813C7.69992 20.8614 6.47797 20.1576 5.44776 19.2188L5.49463 16.4438C5.27082 16.1161 5.07333 15.7713 4.90401 15.4125L2.47588 14.0625C2.17269 12.7046 2.16949 11.2968 2.46651 9.93751L4.90401 8.58751C5.07133 8.23064 5.26893 7.88876 5.49463 7.56563L5.44776 4.78126C6.4768 3.84354 7.69474 3.13707 9.01963 2.70938L11.4103 4.14376C11.8035 4.11563 12.1983 4.11563 12.5915 4.14376L14.9728 2.71876C16.3018 3.13866 17.5238 3.8424 18.554 4.78126L18.5071 7.56563Z"
              stroke="currentColor" stroke-linecap="round" stroke-linejoin="round"/>
    </symbol>
    <symbol viewBox="0 0 24 24" fill="none" xmlns="http://www.w3.org/2000/svg" id="exit">
        <path d="M9.5 21.501H6.5C5.96957 21.501 5.46086 21.2903 5.08579 20.9152C4.71071 20.5401 4.5 20.0314 4.5 19.501V4.50098C4.5 3.97054 4.71071 3.46184 5.08579 3.08676C5.46086 2.71169 5.96957 2.50098 6.5 2.50098H9.5" stroke="currentColor" stroke-linecap="round" stroke-linejoin="round"/>
        <path d="M15.5 17L19.5 12M19.5 12L15.4903 7M19.5 12H9" stroke="currentColor" stroke-linecap="round" stroke-linejoin="round"/>
    </symbol>
    <symbol fill="none" xmlns="http://www.w3.org/2000/svg" viewBox="0 0 24 24" id="calendar">
        <path d="M7 11H9V13H7V11ZM7 15H9V17H7V15ZM11 11H13V13H11V11ZM11 15H13V17H11V15ZM15 11H17V13H15V11ZM15 15H17V17H15V15Z"
              fill="currentColor"/>
        <path d="M5 22H19C20.103 22 21 21.103 21 20V6C21 4.897 20.103 4 19 4H17V2H15V4H9V2H7V4H5C3.897 4 3 4.897 3 6V20C3 21.103 3.897 22 5 22ZM19 8L19.001 20H5V8H19Z"
              fill="currentColor"/>
    </symbol>
    <symbol fill="none" xmlns="http://www.w3.org/2000/svg" viewBox="0 0 24 24" id="edit">
        <path d="M14 2L18 6L7 17H3V13L14 2Z" stroke="currentColor" stroke-width="2" stroke-linecap="round"
              stroke-linejoin="round"/>
        <path d="M3 22H21" stroke="currentColor" stroke-width="2" stroke-linecap="round" stroke-linejoin="round"/>
    </symbol>
    <symbol fill="none" xmlns="http://www.w3.org/2000/svg" viewBox="0 0 14 8" id="arrowDown">
        <path d="M1 1L7 7L13 1" stroke="currentColor" stroke-width="2" stroke-linecap="round"
              stroke-linejoin="round"/>
    </symbol>
    <symbol fill="none" xmlns="http://www.w3.org/2000/svg" viewBox="0 0 24 24" id="trash">
        <path d="M3 6H5H21" stroke="currentColor" stroke-width="2" stroke-linecap="round"
              stroke-linejoin="round"/>
        <path d="M8 6V4C8 3.46957 8.21071 2.96086 8.58579 2.58579C8.96086 2.21071 9.46957 2 10 2H14C14.5304 2 15.0391 2.21071 15.4142 2.58579C15.7893 2.96086 16 3.46957 16 4V6M19 6V20C19 20.5304 18.7893 21.0391 18.4142 21.4142C18.0391 21.7893 17.5304 22 17 22H7C6.46957 22 5.96086 21.7893 5.58579 21.4142C5.21071 21.0391 5 20.5304 5 20V6H19Z"
              stroke="currentColor" stroke-width="2" stroke-linecap="round" stroke-linejoin="round"/>
    </symbol>
    <symbol fill="none" xmlns="http://www.w3.org/2000/svg" viewBox="0 0 24 24" id="cross">
        <path d="M18 6L6 18" stroke="currentColor" stroke-width="2" stroke-linecap="round" stroke-linejoin="round"/>
        <path d="M6 6L18 18" stroke="currentColor" stroke-width="2" stroke-linecap="round" stroke-linejoin="round"/>
    </symbol>
    <symbol fill="none" xmlns="http://www.w3.org/2000/svg" viewBox="0 0 24 24" id="access">

        <path d="M20 6L9 17L4 12" stroke="currentColor" stroke-width="2" stroke-linecap="round"
              stroke-linejoin="round"/>
    </symbol>
    <symbol fill="none" xmlns="http://www.w3.org/2000/svg" viewBox="0 0 40 40" id="bell">
        <rect width="40" height="40" rx="20" fill="currentColor"></rect>
        <path d="M16 32H24" stroke="white" stroke-width="2" stroke-linecap="round" stroke-linejoin="round"></path>
        <path d="M11.025 18C11.025 16.8214 11.2571 15.6543 11.7082 14.5654C12.1592 13.4765 12.8203 12.4871 13.6537 11.6537C14.4871 10.8203 15.4765 10.1592 16.5654 9.70821C17.6543 9.25717 18.8214 9.02502 20 9.02502C21.1786 9.02502 22.3457 9.25717 23.4346 9.70821C24.5235 10.1592 25.5129 10.8203 26.3463 11.6537C27.1797 12.4871 27.8408 13.4765 28.2918 14.5654C28.7429 15.6543 28.975 16.8214 28.975 18V18C28.975 22.475 29.9125 25.075 30.7375 26.5C30.8251 26.6518 30.8713 26.8239 30.8715 26.9991C30.8716 27.1744 30.8257 27.3466 30.7384 27.4985C30.651 27.6504 30.5253 27.7767 30.3738 27.8647C30.2222 27.9528 30.0502 27.9994 29.875 28H10.125C9.94977 27.9994 9.77777 27.9528 9.62624 27.8647C9.47471 27.7767 9.34897 27.6504 9.26162 27.4985C9.17427 27.3466 9.12837 27.1744 9.12853 26.9991C9.12868 26.8239 9.17488 26.6518 9.2625 26.5C10.0875 25.075 11.025 22.475 11.025 18Z"
              stroke="white" stroke-width="2" stroke-linecap="round" stroke-linejoin="round"></path>
        <path d="M26.925 7C28.9611 8.28526 30.6043 10.1058 31.675 12.2625" stroke="currentColor" stroke-width="2"
              stroke-linecap="round" stroke-linejoin="round"></path>
        <path d="M8.325 12.2625C9.39565 10.1058 11.0389 8.28526 13.075 7" stroke="currentColor" stroke-width="2"
              stroke-linecap="round" stroke-linejoin="round"></path>
    </symbol>
    <symbol fill="none" xmlns="http://www.w3.org/2000/svg" viewBox="0 0 40 40" id="cargo">
        <rect width="40" height="40" rx="20" fill="currentColor"></rect>
        <path d="M21.1866 5.93337L31.8532 11.2667C32.2975 11.4875 32.6714 11.8278 32.9329 12.2494C33.1943 12.6711 33.333 13.1573 33.3332 13.6534V26.36C33.333 26.8561 33.1943 27.3424 32.9329 27.764C32.6714 28.1856 32.2975 28.5259 31.8532 28.7467L21.1866 34.08C20.8161 34.2654 20.4075 34.3619 19.9932 34.3619C19.579 34.3619 19.1704 34.2654 18.7999 34.08L8.13324 28.7467C7.68941 28.5231 7.31691 28.1799 7.05775 27.7558C6.7986 27.3317 6.66311 26.8437 6.66657 26.3467V13.6534C6.66683 13.1573 6.80549 12.6711 7.06694 12.2494C7.3284 11.8278 7.70228 11.4875 8.14657 11.2667L18.8132 5.93337C19.182 5.75014 19.5881 5.65479 19.9999 5.65479C20.4117 5.65479 20.8178 5.75014 21.1866 5.93337V5.93337Z"
              stroke="white" stroke-width="2" stroke-linecap="round" stroke-linejoin="round"></path>
        <path d="M7.09326 12.2134L19.9999 18.6667L32.9066 12.2134" stroke="white" stroke-width="2"
              stroke-linecap="round" stroke-linejoin="round"></path>
        <path d="M20 34.3467V18.6667" stroke="white" stroke-width="2" stroke-linecap="round"
              stroke-linejoin="round"></path>
        <path d="M13.3333 8.66675L26.6666 15.3334" stroke="white" stroke-width="2" stroke-linecap="round"
              stroke-linejoin="round"></path>
    </symbol>
    <symbol fill="none" xmlns="http://www.w3.org/2000/svg" viewBox="0 0 40 40" id="time">
        <rect width="40" height="40" rx="20" fill="currentColor"></rect>
        <path d="M20 33.3334C27.3638 33.3334 33.3334 27.3638 33.3334 20C33.3334 12.6362 27.3638 6.66669 20 6.66669C12.6362 6.66669 6.66669 12.6362 6.66669 20C6.66669 27.3638 12.6362 33.3334 20 33.3334Z"
              stroke="white" stroke-width="2" stroke-linecap="round" stroke-linejoin="round"></path>
        <path d="M20 12V20L25.3333 22.6667" stroke="white" stroke-width="2" stroke-linecap="round"
              stroke-linejoin="round"></path>
    </symbol>
    <symbol fill="none" xmlns="http://www.w3.org/2000/svg" viewBox="0 0 40 40" id="sending">
        <rect width="40" height="40" rx="20" fill="currentColor"></rect>
        <path d="M31.325 9.94998L24 31.1125C23.6875 32.025 22.3875 32 22.1 31.075L19.15 21.5C19.1055 21.3435 19.021 21.2012 18.9049 21.0872C18.7887 20.9733 18.6449 20.8915 18.4875 20.85L8.92502 17.9C8.00002 17.6125 7.97502 16.3125 8.88752 16L30.05 8.67498C30.2278 8.61249 30.4197 8.60152 30.6034 8.64333C30.7872 8.68514 30.9554 8.77803 31.0887 8.9113C31.222 9.04457 31.3149 9.21278 31.3567 9.39655C31.3985 9.58032 31.3875 9.77217 31.325 9.94998V9.94998Z"
              stroke="white" stroke-width="2" stroke-linecap="round" stroke-linejoin="round"></path>
    </symbol>
    <!-- конец Дашборд icons -->
    <symbol fill="none" xmlns="http://www.w3.org/2000/svg" viewBox="0 0 24 24" id="arrow-right-thin">
        <path d="M5 12H19" stroke="currentColor" stroke-width="2" stroke-linecap="round" stroke-linejoin="round"></path>
        <path d="M12 5L19 12L12 19" stroke="currentColor" stroke-width="2" stroke-linecap="round"
              stroke-linejoin="round"></path>
    </symbol>
    <symbol fill="none" xmlns="http://www.w3.org/2000/svg" viewBox="0 0 24 24" id="bell-alerts">
        <path d="M9 21H15" stroke="currentColor" stroke-linecap="round" stroke-linejoin="round"/>
        <path d="M5.27001 10.4969C5.27001 9.61291 5.44412 8.73761 5.7824 7.92094C6.12068 7.10426 6.6165 6.36222 7.24155 5.73716C7.86661 5.11211 8.60865 4.61629 9.42533 4.27801C10.242 3.93973 11.1173 3.76562 12.0013 3.76562C12.8852 3.76562 13.7605 3.93973 14.5772 4.27801C15.3939 4.61629 16.1359 5.11211 16.761 5.73716C17.386 6.36222 17.8819 7.10426 18.2201 7.92094C18.5584 8.73761 18.7325 9.61291 18.7325 10.4969V10.4969C18.7325 13.8531 19.4356 15.8031 20.0544 16.8719C20.1201 16.9857 20.1548 17.1148 20.1549 17.2462C20.155 17.3776 20.1206 17.5068 20.0551 17.6207C19.9895 17.7347 19.8952 17.8294 19.7816 17.8954C19.6679 17.9614 19.5389 17.9964 19.4075 17.9969H4.59501C4.46359 17.9964 4.33459 17.9614 4.22094 17.8954C4.10729 17.8294 4.01299 17.7347 3.94748 17.6207C3.88196 17.5068 3.84754 17.3776 3.84766 17.2462C3.84777 17.1148 3.88242 16.9857 3.94814 16.8719C4.56689 15.8031 5.27001 13.8531 5.27001 10.4969Z"
              stroke="currentColor" stroke-linecap="round" stroke-linejoin="round"/>
        <path d="M17.1953 2.25C18.7224 3.21395 19.9548 4.57938 20.7578 6.19687" stroke="currentColor" stroke-linecap="round"
              stroke-linejoin="round"/>
        <path d="M3.24219 6.19687C4.04518 4.57938 5.27764 3.21395 6.80469 2.25" stroke="currentColor" stroke-linecap="round"
              stroke-linejoin="round"/>
    </symbol>
    <symbol fill="none" xmlns="http://www.w3.org/2000/svg" viewBox="0 0 24 24" id="comments">
        <path d="M12 21C16.9706 21 21 16.9706 21 12C21 7.02944 16.9706 3 12 3C7.02944 3 3 7.02944 3 12C3 16.9706 7.02944 21 12 21Z"
              stroke="currentColor" stroke-width="2" stroke-miterlimit="10"></path>
        <path d="M12 13.125C12.6213 13.125 13.125 12.6213 13.125 12C13.125 11.3787 12.6213 10.875 12 10.875C11.3787 10.875 10.875 11.3787 10.875 12C10.875 12.6213 11.3787 13.125 12 13.125Z"
              fill="currentColor"></path>
        <path d="M16.5 13.125C17.1213 13.125 17.625 12.6213 17.625 12C17.625 11.3787 17.1213 10.875 16.5 10.875C15.8787 10.875 15.375 11.3787 15.375 12C15.375 12.6213 15.8787 13.125 16.5 13.125Z"
              fill="currentColor"></path>
        <path d="M7.5 13.125C8.12132 13.125 8.625 12.6213 8.625 12C8.625 11.3787 8.12132 10.875 7.5 10.875C6.87868 10.875 6.375 11.3787 6.375 12C6.375 12.6213 6.87868 13.125 7.5 13.125Z"
              fill="currentColor"></path>
    </symbol>
    <!-- Распечатка Скачать Скопировать -->
    <symbol fill="none" xmlns="http://www.w3.org/2000/svg" viewBox="0 0 24 24" id="printer">
        <path d="M6 7.5V3.75H18V7.5" stroke="currentColor" stroke-width="2" stroke-linecap="round"
              stroke-linejoin="round"></path>
        <path d="M18 14.25H6V20.625H18V14.25Z" stroke="currentColor" stroke-width="2" stroke-linecap="round"
              stroke-linejoin="round"></path>
        <path d="M6 16.5H2.625V9C2.625 8.175 3.35625 7.5 4.24687 7.5H19.7531C20.6437 7.5 21.375 8.175 21.375 9V16.5H18"
              stroke="currentColor" stroke-width="2" stroke-linecap="round" stroke-linejoin="round"></path>
        <path d="M17.625 12C18.2463 12 18.75 11.4963 18.75 10.875C18.75 10.2537 18.2463 9.75 17.625 9.75C17.0037 9.75 16.5 10.2537 16.5 10.875C16.5 11.4963 17.0037 12 17.625 12Z"
              fill="currentColor"></path>
    </symbol>
    <symbol fill="none" xmlns="http://www.w3.org/2000/svg" viewBox="0 0 24 24" id="download">
        <path d="M16.5 12H21C21.1989 12 21.3897 12.079 21.5303 12.2197C21.671 12.3603 21.75 12.5511 21.75 12.75V18.75C21.75 18.9489 21.671 19.1397 21.5303 19.2803C21.3897 19.421 21.1989 19.5 21 19.5H3C2.80109 19.5 2.61032 19.421 2.46967 19.2803C2.32902 19.1397 2.25 18.9489 2.25 18.75V12.75C2.25 12.5511 2.32902 12.3603 2.46967 12.2197C2.61032 12.079 2.80109 12 3 12H7.5"
              stroke="currentColor" stroke-width="2" stroke-linecap="round" stroke-linejoin="round"></path>
        <path d="M12 2.25V12" stroke="currentColor" stroke-width="2" stroke-linecap="round"
              stroke-linejoin="round"></path>
        <path d="M7.5 7.5L12 12L16.5 7.5" stroke="currentColor" stroke-width="2" stroke-linecap="round"
              stroke-linejoin="round"></path>
        <path d="M17.625 16.875C18.2463 16.875 18.75 16.3713 18.75 15.75C18.75 15.1287 18.2463 14.625 17.625 14.625C17.0037 14.625 16.5 15.1287 16.5 15.75C16.5 16.3713 17.0037 16.875 17.625 16.875Z"
              fill="currentColor"></path>
    </symbol>
    <symbol fill="none" xmlns="http://www.w3.org/2000/svg" viewBox="0 0 24 24" id="share">
        <path d="M6 15C7.65685 15 9 13.6569 9 12C9 10.3431 7.65685 9 6 9C4.34315 9 3 10.3431 3 12C3 13.6569 4.34315 15 6 15Z"
              stroke="currentColor" stroke-width="2" stroke-linecap="round" stroke-linejoin="round"></path>
        <path d="M16.5 21.75C18.1569 21.75 19.5 20.4069 19.5 18.75C19.5 17.0931 18.1569 15.75 16.5 15.75C14.8431 15.75 13.5 17.0931 13.5 18.75C13.5 20.4069 14.8431 21.75 16.5 21.75Z"
              stroke="currentColor" stroke-width="2" stroke-linecap="round" stroke-linejoin="round"></path>
        <path d="M16.5 8.25C18.1569 8.25 19.5 6.90685 19.5 5.25C19.5 3.59315 18.1569 2.25 16.5 2.25C14.8431 2.25 13.5 3.59315 13.5 5.25C13.5 6.90685 14.8431 8.25 16.5 8.25Z"
              stroke="currentColor" stroke-width="2" stroke-linecap="round" stroke-linejoin="round"></path>
        <path d="M13.9777 6.87189L8.52148 10.3781" stroke="currentColor" stroke-width="2" stroke-linecap="round"
              stroke-linejoin="round"></path>
        <path d="M8.52148 13.6219L13.9777 17.1281" stroke="currentColor" stroke-width="2" stroke-linecap="round"
              stroke-linejoin="round"></path>
    </symbol>
    <symbol fill="currentColor" xmlns="http://www.w3.org/2000/svg" viewBox="0 0 24 24" id="preview">
        <path d="M20.25 4.5H3.75C3.33579 4.5 3 4.83579 3 5.25V18.75C3 19.1642 3.33579 19.5 3.75 19.5H20.25C20.6642 19.5 21 19.1642 21 18.75V5.25C21 4.83579 20.6642 4.5 20.25 4.5Z"
              stroke="white" stroke-width="1.5" stroke-linecap="round" stroke-linejoin="round"></path>
        <path d="M7.125 9H16.875" stroke="white" stroke-width="1.5" stroke-linecap="round"
              stroke-linejoin="round"></path>
        <path d="M7.125 12H16.875" stroke="white" stroke-width="1.5" stroke-linecap="round"
              stroke-linejoin="round"></path>
        <path d="M7.125 15H16.875" stroke="white" stroke-width="1.5" stroke-linecap="round"
              stroke-linejoin="round"></path>
    </symbol>
    <symbol fill="none" xmlns="http://www.w3.org/2000/svg" viewBox="0 0 16 17" id="attach">
        <path d="M6.2896 15.1298C9.03724 12.3974 11.1865 10.2132 13.5772 7.86854C14.3664 7.04421 14.8663 6.23738 15.0768 5.44811C15.4451 3.95869 14.8788 2.66892 13.8929 1.65962C12.9458 0.712503 11.9329 0.265249 10.8542 0.317876C9.77554 0.370503 8.71005 0.914223 7.65768 1.94904L0.948868 8.68411L2.05385 9.76277L8.76265 3.054C9.45105 2.3995 10.2702 1.78246 11.2094 1.87009C12.6403 2.07097 13.9039 3.8223 13.5772 5.05348C13.1629 6.1458 12.5918 6.64399 11.8014 7.43442C9.39681 9.83282 7.52194 11.6875 5.18465 14.0248C4.30625 14.8275 3.73817 15.0448 2.92209 14.2879C2.50115 13.867 2.31699 13.4548 2.3696 13.0514C2.42799 12.5807 2.69444 12.2552 3.001 11.9464L9.13097 5.81641C9.41101 5.53588 10.0488 4.99741 10.3149 5.23762C10.519 5.71124 9.99327 6.16329 9.7361 6.42153L4.10597 12.0516L5.18462 13.1566L10.841 7.52653C11.8153 6.52166 12.5153 5.29373 11.4198 4.15898C10.2083 3.11914 8.93206 3.81334 8.02598 4.71148L1.89601 10.8414C1.26461 11.4728 0.905041 12.1569 0.817361 12.8936C0.748188 13.9263 1.2138 14.7553 1.8434 15.3929C2.4352 15.9815 3.07455 16.3075 3.86921 16.3137C4.82463 16.2755 5.76404 15.6462 6.2896 15.1298Z"
              fill="currentColor"></path>
    </symbol>
    <symbol fill="none" xmlns="http://www.w3.org/2000/svg" viewBox="0 0 24 24" id="arrow-down-thin">
        <path d="M12 5V19" stroke="currentColor" stroke-width="2" stroke-linecap="round" stroke-linejoin="round"></path>
        <path d="M19 12L12 19L5 12" stroke="currentColor" stroke-width="2" stroke-linecap="round"
              stroke-linejoin="round"></path>
    </symbol>
    <symbol fill="none" xmlns="http://www.w3.org/2000/svg" viewBox="0 0 16 16" id="arrow-left-thin">
        <path d="M12.6667 8L3.33337 8" stroke="currentColor" stroke-width="1.33333" stroke-linecap="round"
              stroke-linejoin="round"></path>
        <path d="M8.00004 3.33329L3.33337 7.99996L8.00004 12.6666" stroke="currentColor" stroke-width="1.33333"
              stroke-linecap="round" stroke-linejoin="round"></path>
    </symbol>
    <symbol fill="none" xmlns="http://www.w3.org/2000/svg" viewBox="0 0 24 24" id="history">
        <path d="M12 7.5V12" stroke="currentColor" stroke-width="2" stroke-linecap="round"
              stroke-linejoin="round"></path>
        <path d="M15.9 14.25L12 12" stroke="currentColor" stroke-width="2" stroke-linecap="round"
              stroke-linejoin="round"></path>
        <path d="M6.73047 9.34668H2.98047V5.59668" stroke="currentColor" stroke-width="2" stroke-linecap="round"
              stroke-linejoin="round"></path>
        <path d="M6.16797 17.8313C7.32148 18.9857 8.79148 19.7721 10.392 20.091C11.9925 20.4099 13.6517 20.2469 15.1596 19.6227C16.6674 18.9984 17.9563 17.941 18.8631 16.5842C19.77 15.2273 20.254 13.632 20.254 12C20.254 10.368 19.77 8.7727 18.8631 7.41585C17.9563 6.059 16.6674 5.00158 15.1596 4.37735C13.6517 3.75313 11.9925 3.59014 10.392 3.90902C8.79148 4.22789 7.32148 5.0143 6.16797 6.16875L2.98047 9.34688"
              stroke="currentColor" stroke-width="2" stroke-linecap="round" stroke-linejoin="round"></path>
    </symbol>
    <symbol fill="none" xmlns="http://www.w3.org/2000/svg" viewBox="0 0 18 22" id="word-document">
        <path d="M17.0297 5.76641C17.1703 5.90703 17.25 6.09687 17.25 6.29609V20.75C17.25 21.1648 16.9148 21.5 16.5 21.5H1.5C1.08516 21.5 0.75 21.1648 0.75 20.75V1.25C0.75 0.835156 1.08516 0.5 1.5 0.5H11.4539C11.6531 0.5 11.8453 0.579688 11.9859 0.720313L17.0297 5.76641ZM15.5203 6.64062L11.1094 2.22969V6.64062H15.5203ZM9 12.268L10.2377 16.8852C10.2537 16.945 10.2891 16.9979 10.3382 17.0356C10.3874 17.0734 10.4476 17.0938 10.5096 17.0938H11.2542C11.3161 17.0938 11.3763 17.0735 11.4255 17.0358C11.4746 16.9982 11.51 16.9454 11.5261 16.8856L13.2691 10.4169C13.2755 10.393 13.2786 10.3684 13.2785 10.3438C13.2785 10.2692 13.2489 10.1976 13.1961 10.1449C13.1434 10.0921 13.0719 10.0625 12.9973 10.0625H12.1636C12.0999 10.0625 12.0382 10.084 11.9883 10.1237C11.9385 10.1633 11.9036 10.2187 11.8894 10.2807L10.8164 14.9471L9.65016 10.2755C9.63495 10.2147 9.59984 10.1607 9.55041 10.1221C9.50098 10.0835 9.44006 10.0625 9.37734 10.0625H8.62266C8.55991 10.0625 8.49897 10.0835 8.44953 10.1222C8.4001 10.1608 8.36501 10.2149 8.34984 10.2758L7.18594 14.9377L6.10547 10.2805C6.09113 10.2186 6.05626 10.1634 6.00656 10.1239C5.95685 10.0843 5.89523 10.0628 5.83172 10.0627H5.00227C4.97765 10.0627 4.95315 10.066 4.92938 10.0723C4.85737 10.0917 4.79602 10.1389 4.75879 10.2035C4.72157 10.2681 4.71152 10.3449 4.73086 10.4169L6.46922 16.8856C6.48529 16.9453 6.52059 16.9981 6.56965 17.0357C6.61871 17.0733 6.6788 17.0937 6.74063 17.0938H7.49039C7.55232 17.0937 7.61251 17.0733 7.66162 17.0356C7.71074 16.9979 7.74603 16.945 7.76203 16.8852L8.99977 12.268H9Z"
              fill="currentColor"></path>
    </symbol>
    <symbol fill="none" xmlns="http://www.w3.org/2000/svg" viewBox="0 0 24 27" id="indicator">
        <path d="M11.0809 1.14467C11.4272 0.336566 12.5728 0.336564 12.9191 1.14467L23.1971 25.1266C23.5244 25.8904 22.8314 26.697 22.027 26.4885L12.251 23.954C12.0864 23.9113 11.9136 23.9113 11.749 23.954L1.97301 26.4885C1.1686 26.697 0.475554 25.8904 0.802902 25.1266L11.0809 1.14467Z"
              fill="currentColor"></path>
    </symbol>
    <symbol fill="none" xmlns="http://www.w3.org/2000/svg" viewBox="0 0 24 24" id="slash">
        <path d="M12 22C17.5228 22 22 17.5228 22 12C22 6.47715 17.5228 2 12 2C6.47715 2 2 6.47715 2 12C2 17.5228 6.47715 22 12 22Z"
              stroke="currentColor" stroke-width="2" stroke-linecap="round" stroke-linejoin="round"></path>
        <path d="M4.92969 4.93018L19.0697 19.0702" stroke="currentColor" stroke-width="2" stroke-linecap="round"
              stroke-linejoin="round"></path>
    </symbol>
    <symbol fill="none" xmlns="http://www.w3.org/2000/svg" viewBox="0 0 24 24" id="access-square">
        <rect x="0.5" y="0.5" width="23" height="23" rx="1.5" fill="white" stroke="currentColor"></rect>
    </symbol>
    <symbol fill="none" xmlns="http://www.w3.org/2000/svg" viewBox="0 0 24 24" id="alert-circle">
        <g clip-path="url(#clip0_2695_20179)">
            <path d="M12 22C17.5228 22 22 17.5228 22 12C22 6.47715 17.5228 2 12 2C6.47715 2 2 6.47715 2 12C2 17.5228 6.47715 22 12 22Z"
                  stroke="currentColor" stroke-width="2" stroke-linecap="round" stroke-linejoin="round"></path>
            <path d="M12 8V12" stroke="currentColor" stroke-width="2" stroke-linecap="round"
                  stroke-linejoin="round"></path>
            <path d="M12 16H12.01" stroke="currentColor" stroke-width="2" stroke-linecap="round"
                  stroke-linejoin="round"></path>
        </g>
        <defs>
            <clipPath id="clip0_2695_20179">
                <rect width="24" height="24" fill="white"></rect>
            </clipPath>
        </defs>
    </symbol>
    <symbol fill="none" xmlns="http://www.w3.org/2000/svg" viewBox="0 0 24 24" id="archive">
        <path d="M21 8V21H3V8" stroke="currentColor" stroke-width="2" stroke-linecap="round"
              stroke-linejoin="round"></path>
        <path d="M23 3H1V8H23V3Z" stroke="currentColor" stroke-width="2" stroke-linecap="round"
              stroke-linejoin="round"></path>
        <path d="M10 12H14" stroke="currentColor" stroke-width="2" stroke-linecap="round"
              stroke-linejoin="round"></path>
    </symbol>
    <symbol fill="none" xmlns="http://www.w3.org/2000/svg" viewBox="0 0 14 8" id="arrow-up">
        <path d="M13 7L7 1L1 7" stroke="currentColor" stroke-width="2" stroke-linecap="round"
              stroke-linejoin="round"></path>
    </symbol>
    <symbol fill="none" xmlns="http://www.w3.org/2000/svg" viewBox="0 0 24 24" id="dollar">
        <path d="M12 1V23" stroke="currentColor" stroke-width="2" stroke-linecap="round" stroke-linejoin="round"></path>
        <path d="M17 5H9.5C8.57174 5 7.6815 5.36875 7.02513 6.02513C6.36875 6.6815 6 7.57174 6 8.5C6 9.42826 6.36875 10.3185 7.02513 10.9749C7.6815 11.6313 8.57174 12 9.5 12H14.5C15.4283 12 16.3185 12.3687 16.9749 13.0251C17.6313 13.6815 18 14.5717 18 15.5C18 16.4283 17.6313 17.3185 16.9749 17.9749C16.3185 18.6313 15.4283 19 14.5 19H6"
              stroke="currentColor" stroke-width="2" stroke-linecap="round" stroke-linejoin="round"></path>
    </symbol>

    <symbol fill="none" xmlns="http://www.w3.org/2000/svg" viewBox="0 0 24 24" id="minus-square">
        <path d="M19 3H5C3.89543 3 3 3.89543 3 5V19C3 20.1046 3.89543 21 5 21H19C20.1046 21 21 20.1046 21 19V5C21 3.89543 20.1046 3 19 3Z"
              stroke="currentColor" stroke-width="2" stroke-linecap="round" stroke-linejoin="round"></path>
        <path d="M8 12H16" stroke="currentColor" stroke-width="2" stroke-linecap="round" stroke-linejoin="round"></path>
    </symbol>
    <symbol fill="none" xmlns="http://www.w3.org/2000/svg" viewBox="0 0 24 24" id="plus-square">
        <path d="M19 3H5C3.89543 3 3 3.89543 3 5V19C3 20.1046 3.89543 21 5 21H19C20.1046 21 21 20.1046 21 19V5C21 3.89543 20.1046 3 19 3Z"
              stroke="currentColor" stroke-width="2" stroke-linecap="round" stroke-linejoin="round"></path>
        <path d="M12 8V16" stroke="currentColor" stroke-width="2" stroke-linecap="round" stroke-linejoin="round"></path>
        <path d="M8 12H16" stroke="currentColor" stroke-width="2" stroke-linecap="round" stroke-linejoin="round"></path>
    </symbol>
    <symbol fill="none" xmlns="http://www.w3.org/2000/svg" viewBox="0 0 24 24" id="search">
        <path d="M11 19C15.4183 19 19 15.4183 19 11C19 6.58172 15.4183 3 11 3C6.58172 3 3 6.58172 3 11C3 15.4183 6.58172 19 11 19Z"
              stroke="currentColor" stroke-width="2" stroke-linecap="round" stroke-linejoin="round"></path>
        <path d="M21.0004 21L16.6504 16.65" stroke="currentColor" stroke-width="2" stroke-linecap="round"
              stroke-linejoin="round"></path>
    </symbol>
    <symbol fill="none" xmlns="http://www.w3.org/2000/svg" viewBox="0 0 24 24" id="toggle-right">
        <path d="M16 5H8C4.13401 5 1 8.13401 1 12C1 15.866 4.13401 19 8 19H16C19.866 19 23 15.866 23 12C23 8.13401 19.866 5 16 5Z"
              stroke="currentColor" stroke-width="2" stroke-linecap="round" stroke-linejoin="round"></path>
        <path d="M16 15C17.6569 15 19 13.6569 19 12C19 10.3431 17.6569 9 16 9C14.3431 9 13 10.3431 13 12C13 13.6569 14.3431 15 16 15Z"
              stroke="currentColor" stroke-width="2" stroke-linecap="round" stroke-linejoin="round"></path>
    </symbol>
    <symbol fill="none" xmlns="http://www.w3.org/2000/svg" viewBox="0 0 24 24" id="trash-2">
        <path d="M3 6H5H21" stroke="currentColor" stroke-width="2" stroke-linecap="round"
              stroke-linejoin="round"></path>
        <path d="M8 6V4C8 3.46957 8.21071 2.96086 8.58579 2.58579C8.96086 2.21071 9.46957 2 10 2H14C14.5304 2 15.0391 2.21071 15.4142 2.58579C15.7893 2.96086 16 3.46957 16 4V6M19 6V20C19 20.5304 18.7893 21.0391 18.4142 21.4142C18.0391 21.7893 17.5304 22 17 22H7C6.46957 22 5.96086 21.7893 5.58579 21.4142C5.21071 21.0391 5 20.5304 5 20V6H19Z"
              stroke="currentColor" stroke-width="2" stroke-linecap="round" stroke-linejoin="round"></path>
        <path d="M10 11V17" stroke="currentColor" stroke-width="2" stroke-linecap="round"
              stroke-linejoin="round"></path>
        <path d="M14 11V17" stroke="currentColor" stroke-width="2" stroke-linecap="round"
              stroke-linejoin="round"></path>
    </symbol>
    <symbol id="users" viewBox="0 0 24 24" fill="none" xmlns="http://www.w3.org/2000/svg">
        <path d="M17 21V19C17 17.9391 16.5786 16.9217 15.8284 16.1716C15.0783 15.4214 14.0609 15 13 15H5C3.93913 15 2.92172 15.4214 2.17157 16.1716C1.42143 16.9217 1 17.9391 1 19V21" stroke="currentColor" stroke-linecap="round" stroke-linejoin="round"/>
        <path d="M9 11C11.2091 11 13 9.20914 13 7C13 4.79086 11.2091 3 9 3C6.79086 3 5 4.79086 5 7C5 9.20914 6.79086 11 9 11Z" stroke="currentColor" stroke-linecap="round" stroke-linejoin="round"/>
        <path d="M23 21.0028V19.0028C22.9993 18.1165 22.7044 17.2556 22.1614 16.5551C21.6184 15.8547 20.8581 15.3544 20 15.1328" stroke="currentColor" stroke-linecap="round" stroke-linejoin="round"/>
        <path d="M16 3.13281C16.8604 3.35311 17.623 3.85351 18.1676 4.55512C18.7122 5.25673 19.0078 6.11964 19.0078 7.00781C19.0078 7.89598 18.7122 8.75889 18.1676 9.4605C17.623 10.1621 16.8604 10.6625 16 10.8828" stroke="currentColor" stroke-linecap="round" stroke-linejoin="round"/>
    </symbol>
    <symbol fill="none" xmlns="http://www.w3.org/2000/svg" viewBox="0 0 22 22" id="phone-2">
        <path d="M21.0004 15.92V18.92C21.0016 19.1985 20.9445 19.4741 20.8329 19.7293C20.7214 19.9845 20.5577 20.2136 20.3525 20.4018C20.1473 20.5901 19.905 20.7335 19.6412 20.8227C19.3773 20.9119 19.0978 20.945 18.8204 20.92C15.7433 20.5856 12.7874 19.5341 10.1904 17.85C7.77425 16.3146 5.72576 14.2661 4.19042 11.85C2.5004 9.24118 1.44866 6.27097 1.12042 3.17997C1.09543 2.90344 1.1283 2.62474 1.21692 2.3616C1.30555 2.09846 1.44799 1.85666 1.63519 1.6516C1.82238 1.44653 2.05023 1.28268 2.30421 1.1705C2.5582 1.05831 2.83276 1.00024 3.11042 0.999975H6.11042C6.59573 0.995198 7.06621 1.16705 7.43418 1.48351C7.80215 1.79996 8.0425 2.23942 8.11042 2.71997C8.23704 3.68004 8.47187 4.6227 8.81042 5.52997C8.94497 5.8879 8.97408 6.27689 8.89433 6.65086C8.81457 7.02482 8.62928 7.36809 8.36042 7.63998L7.09042 8.90997C8.51398 11.4135 10.5869 13.4864 13.0904 14.91L14.3604 13.64C14.6323 13.3711 14.9756 13.1858 15.3495 13.1061C15.7235 13.0263 16.1125 13.0554 16.4704 13.19C17.3777 13.5285 18.3204 13.7634 19.2804 13.89C19.7662 13.9585 20.2098 14.2032 20.527 14.5775C20.8441 14.9518 21.0126 15.4296 21.0004 15.92Z"
              stroke="currentColor" stroke-width="2" stroke-linecap="round" stroke-linejoin="round"></path>
    </symbol>
    <symbol fill="none" xmlns="http://www.w3.org/2000/svg" viewBox="0 0 24 24" id="zoom-in">
        <path d="M11 19C15.4183 19 19 15.4183 19 11C19 6.58172 15.4183 3 11 3C6.58172 3 3 6.58172 3 11C3 15.4183 6.58172 19 11 19Z"
              stroke="currentColor" stroke-width="2" stroke-linecap="round" stroke-linejoin="round"></path>
        <path d="M21.0004 21L16.6504 16.65" stroke="currentColor" stroke-width="2" stroke-linecap="round"
              stroke-linejoin="round"></path>
        <path d="M11 8V14" stroke="currentColor" stroke-width="2" stroke-linecap="round" stroke-linejoin="round"></path>
        <path d="M8 11H14" stroke="currentColor" stroke-width="2" stroke-linecap="round" stroke-linejoin="round"></path>
    </symbol>
    <symbol fill="none" xmlns="http://www.w3.org/2000/svg" viewBox="0 0 24 24" id="zoom-out">
        <path d="M11 19C15.4183 19 19 15.4183 19 11C19 6.58172 15.4183 3 11 3C6.58172 3 3 6.58172 3 11C3 15.4183 6.58172 19 11 19Z"
              stroke="currentColor" stroke-width="2" stroke-linecap="round" stroke-linejoin="round"></path>
        <path d="M21.0004 21L16.6504 16.65" stroke="currentColor" stroke-width="2" stroke-linecap="round"
              stroke-linejoin="round"></path>
        <path d="M8 11H14" stroke="currentColor" stroke-width="2" stroke-linecap="round" stroke-linejoin="round"></path>
    </symbol>
    <symbol fill="none" xmlns="http://www.w3.org/2000/svg" viewBox="0 0 24 24" id="mail">
        <path d="M4 4H20C21.1 4 22 4.9 22 6V18C22 19.1 21.1 20 20 20H4C2.9 20 2 19.1 2 18V6C2 4.9 2.9 4 4 4Z"
              stroke="currentColor" stroke-width="2" stroke-linecap="round" stroke-linejoin="round"></path>
        <path d="M22 6L12 13L2 6" stroke="currentColor" stroke-width="2" stroke-linecap="round"
              stroke-linejoin="round"></path>
    </symbol>
    <symbol fill="none" xmlns="http://www.w3.org/2000/svg" viewBox="0 0 24 24" id="download-2">
        <path d="M16.5 12H21C21.1989 12 21.3897 12.079 21.5303 12.2197C21.671 12.3603 21.75 12.5511 21.75 12.75V18.75C21.75 18.9489 21.671 19.1397 21.5303 19.2803C21.3897 19.421 21.1989 19.5 21 19.5H3C2.80109 19.5 2.61032 19.421 2.46967 19.2803C2.32902 19.1397 2.25 18.9489 2.25 18.75V12.75C2.25 12.5511 2.32902 12.3603 2.46967 12.2197C2.61032 12.079 2.80109 12 3 12H7.5"
              stroke="currentColor" stroke-width="2" stroke-linecap="round" stroke-linejoin="round"></path>
        <path d="M12 2.25V12" stroke="currentColor" stroke-width="2" stroke-linecap="round"
              stroke-linejoin="round"></path>
        <path d="M7.5 7.5L12 12L16.5 7.5" stroke="currentColor" stroke-width="2" stroke-linecap="round"
              stroke-linejoin="round"></path>
        <path d="M17.625 16.875C18.2463 16.875 18.75 16.3713 18.75 15.75C18.75 15.1287 18.2463 14.625 17.625 14.625C17.0037 14.625 16.5 15.1287 16.5 15.75C16.5 16.3713 17.0037 16.875 17.625 16.875Z"
              fill="currentColor"></path>
    </symbol>
    <symbol fill="none" xmlns="http://www.w3.org/2000/svg" viewBox="0 0 24 24" id="globus">
        <path d="M12 22C17.5228 22 22 17.5228 22 12C22 6.47715 17.5228 2 12 2C6.47715 2 2 6.47715 2 12C2 17.5228 6.47715 22 12 22Z"
              stroke="currentColor" stroke-width="2" stroke-linecap="round" stroke-linejoin="round"></path>
        <path d="M2 12H22" stroke="currentColor" stroke-width="2" stroke-linecap="round" stroke-linejoin="round"></path>
        <path d="M12 2C14.5013 4.73835 15.9228 8.29203 16 12C15.9228 15.708 14.5013 19.2616 12 22C9.49872 19.2616 8.07725 15.708 8 12C8.07725 8.29203 9.49872 4.73835 12 2V2Z"
              stroke="currentColor" stroke-width="2" stroke-linecap="round" stroke-linejoin="round"></path>
    </symbol>
    <symbol fill="none" xmlns="http://www.w3.org/2000/svg" viewBox="0 0 24 24" id="headphones">
        <path d="M3 18V12C3 9.61305 3.94821 7.32387 5.63604 5.63604C7.32387 3.94821 9.61305 3 12 3C14.3869 3 16.6761 3.94821 18.364 5.63604C20.0518 7.32387 21 9.61305 21 12V18"
              stroke="currentColor" stroke-width="2" stroke-linecap="round" stroke-linejoin="round"></path>
        <path d="M21 19C21 19.5304 20.7893 20.0391 20.4142 20.4142C20.0391 20.7893 19.5304 21 19 21H18C17.4696 21 16.9609 20.7893 16.5858 20.4142C16.2107 20.0391 16 19.5304 16 19V16C16 15.4696 16.2107 14.9609 16.5858 14.5858C16.9609 14.2107 17.4696 14 18 14H21V19ZM3 19C3 19.5304 3.21071 20.0391 3.58579 20.4142C3.96086 20.7893 4.46957 21 5 21H6C6.53043 21 7.03914 20.7893 7.41421 20.4142C7.78929 20.0391 8 19.5304 8 19V16C8 15.4696 7.78929 14.9609 7.41421 14.5858C7.03914 14.2107 6.53043 14 6 14H3V19Z"
              stroke="currentColor" stroke-width="2" stroke-linecap="round" stroke-linejoin="round"></path>
    </symbol>
    <symbol fill="none" xmlns="http://www.w3.org/2000/svg" viewBox="0 0 24 24" id="help-circle">
        <g clip-path="url(#clip0_2695_20156)">
            <path d="M12 22C17.5228 22 22 17.5228 22 12C22 6.47715 17.5228 2 12 2C6.47715 2 2 6.47715 2 12C2 17.5228 6.47715 22 12 22Z"
                  stroke="currentColor" stroke-width="2" stroke-linecap="round" stroke-linejoin="round"></path>
            <path d="M9.08984 8.99996C9.32495 8.33163 9.789 7.76807 10.3998 7.40909C11.0106 7.05012 11.7287 6.9189 12.427 7.03867C13.1253 7.15844 13.7587 7.52148 14.2149 8.06349C14.6712 8.60549 14.9209 9.29148 14.9198 9.99996C14.9198 12 11.9198 13 11.9198 13"
                  stroke="currentColor" stroke-width="2" stroke-linecap="round" stroke-linejoin="round"></path>
            <path d="M12 17H12.01" stroke="currentColor" stroke-width="2" stroke-linecap="round"
                  stroke-linejoin="round"></path>
        </g>
        <defs>
            <clipPath id="clip0_2695_20156">
                <rect width="24" height="24" fill="white"></rect>
            </clipPath>
        </defs>
    </symbol>
    <symbol fill="none" xmlns="http://www.w3.org/2000/svg" viewBox="0 0 24 24" id="home-2">
        <path d="M3 9L12 2L21 9V20C21 20.5304 20.7893 21.0391 20.4142 21.4142C20.0391 21.7893 19.5304 22 19 22H5C4.46957 22 3.96086 21.7893 3.58579 21.4142C3.21071 21.0391 3 20.5304 3 20V9Z"
              stroke="currentColor" stroke-width="2" stroke-linecap="round" stroke-linejoin="round"></path>
        <path d="M9 22V12H15V22" stroke="currentColor" stroke-width="2" stroke-linecap="round"
              stroke-linejoin="round"></path>
    </symbol>
    <symbol fill="none" xmlns="http://www.w3.org/2000/svg" viewBox="0 0 24 24" id="image">
        <path d="M19 3H5C3.89543 3 3 3.89543 3 5V19C3 20.1046 3.89543 21 5 21H19C20.1046 21 21 20.1046 21 19V5C21 3.89543 20.1046 3 19 3Z"
              stroke="currentColor" stroke-width="2" stroke-linecap="round" stroke-linejoin="round"></path>
        <path d="M8.5 10C9.32843 10 10 9.32843 10 8.5C10 7.67157 9.32843 7 8.5 7C7.67157 7 7 7.67157 7 8.5C7 9.32843 7.67157 10 8.5 10Z"
              stroke="currentColor" stroke-width="2" stroke-linecap="round" stroke-linejoin="round"></path>
        <path d="M21 15L16 10L5 21" stroke="currentColor" stroke-width="2" stroke-linecap="round"
              stroke-linejoin="round"></path>
    </symbol>
    <symbol fill="none" xmlns="http://www.w3.org/2000/svg" viewBox="0 0 24 24" id="info">
        <g clip-path="url(#clip0_2695_20134)">
            <path d="M12 22C17.5228 22 22 17.5228 22 12C22 6.47715 17.5228 2 12 2C6.47715 2 2 6.47715 2 12C2 17.5228 6.47715 22 12 22Z"
                  stroke="currentColor" stroke-width="2" stroke-linecap="round" stroke-linejoin="round"></path>
            <path d="M12 16V12" stroke="currentColor" stroke-width="2" stroke-linecap="round"
                  stroke-linejoin="round"></path>
            <path d="M12 8H12.01" stroke="currentColor" stroke-width="2" stroke-linecap="round"
                  stroke-linejoin="round"></path>
        </g>
        <defs>
            <clipPath id="clip0_2695_20134">
                <rect width="24" height="24" fill="white"></rect>
            </clipPath>
        </defs>
    </symbol>
    <symbol fill="none" xmlns="http://www.w3.org/2000/svg" viewBox="0 0 22 22" id="key">
        <path d="M19.5219 5.6563C20.0138 6.80501 20.1343 8.07881 19.8663 9.29936C19.5983 10.5199 18.9554 11.6261 18.0275 12.4631C17.0996 13.3001 15.9331 13.8259 14.6915 13.9671C13.4499 14.1082 12.1952 13.8575 11.1031 13.25V13.25L5.84375 19.3438C5.42106 19.7665 4.84777 20.0039 4.25 20.0039C3.65222 20.0039 3.07894 19.7665 2.65625 19.3438C2.23356 18.9211 1.99609 18.3478 1.99609 17.75C1.99609 17.1523 2.23356 16.579 2.65625 16.1563L8.75 10.8969C8.14258 9.80485 7.89188 8.55017 8.03299 7.30854C8.1741 6.06691 8.69996 4.90049 9.53694 3.97257C10.3739 3.04466 11.4801 2.40171 12.7007 2.13374C13.9212 1.86578 15.195 1.98621 16.3437 2.47817L12.4062 6.4063L12.9406 9.05942L15.5937 9.5938L19.5219 5.6563Z"
              stroke="currentColor" stroke-width="2" stroke-linecap="round" stroke-linejoin="round"></path>
    </symbol>
    <symbol fill="none" xmlns="http://www.w3.org/2000/svg" viewBox="0 0 24 24" id="layout">
        <path d="M19 3H5C3.89543 3 3 3.89543 3 5V19C3 20.1046 3.89543 21 5 21H19C20.1046 21 21 20.1046 21 19V5C21 3.89543 20.1046 3 19 3Z"
              stroke="currentColor" stroke-width="2" stroke-linecap="round" stroke-linejoin="round"></path>
        <path d="M3 9H21" stroke="currentColor" stroke-width="2" stroke-linecap="round" stroke-linejoin="round"></path>
        <path d="M9 21V9" stroke="currentColor" stroke-width="2" stroke-linecap="round" stroke-linejoin="round"></path>
    </symbol>
    <symbol fill="none" xmlns="http://www.w3.org/2000/svg" viewBox="0 0 24 24" id="link">
        <path d="M10 13C10.4295 13.5741 10.9774 14.0491 11.6066 14.3929C12.2357 14.7367 12.9315 14.9411 13.6467 14.9923C14.3618 15.0435 15.0796 14.9403 15.7513 14.6897C16.4231 14.4392 17.0331 14.047 17.54 13.54L20.54 10.54C21.4508 9.59695 21.9548 8.33394 21.9434 7.02296C21.932 5.71198 21.4061 4.45791 20.4791 3.53087C19.5521 2.60383 18.298 2.07799 16.987 2.0666C15.676 2.0552 14.413 2.55918 13.47 3.46997L11.75 5.17997"
              stroke="currentColor" stroke-width="2" stroke-linecap="round" stroke-linejoin="round"></path>
        <path d="M14.0002 11C13.5707 10.4259 13.0228 9.9508 12.3936 9.60704C11.7645 9.26328 11.0687 9.05886 10.3535 9.00765C9.63841 8.95643 8.92061 9.05961 8.24885 9.3102C7.5771 9.56079 6.96709 9.95291 6.4602 10.46L3.4602 13.46C2.54941 14.403 2.04544 15.666 2.05683 16.977C2.06822 18.288 2.59407 19.542 3.52111 20.4691C4.44815 21.3961 5.70221 21.922 7.01319 21.9334C8.32418 21.9447 9.58719 21.4408 10.5302 20.53L12.2402 18.82"
              stroke="currentColor" stroke-width="2" stroke-linecap="round" stroke-linejoin="round"></path>
    </symbol>
    <symbol fill="none" xmlns="http://www.w3.org/2000/svg" viewBox="0 0 16 21" id="location">
        <path d="M8 1L15 20L8 16L1 20L8 1Z" stroke="currentColor" stroke-width="2" stroke-linecap="round"
              stroke-linejoin="round"></path>
    </symbol>
    <symbol fill="none" xmlns="http://www.w3.org/2000/svg" viewBox="0 0 24 24" id="map-pin">
        <path d="M21 10C21 17 12 23 12 23C12 23 3 17 3 10C3 7.61305 3.94821 5.32387 5.63604 3.63604C7.32387 1.94821 9.61305 1 12 1C14.3869 1 16.6761 1.94821 18.364 3.63604C20.0518 5.32387 21 7.61305 21 10Z"
              stroke="currentColor" stroke-width="2" stroke-linecap="round" stroke-linejoin="round"></path>
        <path d="M12 13C13.6569 13 15 11.6569 15 10C15 8.34315 13.6569 7 12 7C10.3431 7 9 8.34315 9 10C9 11.6569 10.3431 13 12 13Z"
              stroke="currentColor" stroke-width="2" stroke-linecap="round" stroke-linejoin="round"></path>
    </symbol>
    <symbol fill="none" xmlns="http://www.w3.org/2000/svg" viewBox="0 0 24 24" id="maximize-2">
        <path d="M15 3H21V9" stroke="currentColor" stroke-width="2" stroke-linecap="round"
              stroke-linejoin="round"></path>
        <path d="M9 21H3V15" stroke="currentColor" stroke-width="2" stroke-linecap="round"
              stroke-linejoin="round"></path>
        <path d="M21 3L14 10" stroke="currentColor" stroke-width="2" stroke-linecap="round"
              stroke-linejoin="round"></path>
        <path d="M3 21L10 14" stroke="currentColor" stroke-width="2" stroke-linecap="round"
              stroke-linejoin="round"></path>
    </symbol>
    <symbol fill="none" xmlns="http://www.w3.org/2000/svg" viewBox="0 0 24 24" id="minimize-2">
        <path d="M4 14H10V20" stroke="currentColor" stroke-width="2" stroke-linecap="round"
              stroke-linejoin="round"></path>
        <path d="M20 10H14V4" stroke="currentColor" stroke-width="2" stroke-linecap="round"
              stroke-linejoin="round"></path>
        <path d="M14 10L21 3" stroke="currentColor" stroke-width="2" stroke-linecap="round"
              stroke-linejoin="round"></path>
        <path d="M3 21L10 14" stroke="currentColor" stroke-width="2" stroke-linecap="round"
              stroke-linejoin="round"></path>
    </symbol>
    <symbol fill="none" xmlns="http://www.w3.org/2000/svg" viewBox="0 0 16 21" id="file-2">
        <path d="M0 1C0 0.447715 0.447715 0 1 0H8.63008C8.86879 0 9.09962 0.0853922 9.28087 0.240743L15.6508 5.70068C15.8724 5.89066 16 6.16801 16 6.45993V20C16 20.5523 15.5523 21 15 21H1C0.447715 21 0 20.5523 0 20V1Z"
              fill="currentColor"></path>
        <path d="M9 3L14 7H9V3Z" fill="white"></path>
    </symbol>
    <symbol fill="none" xmlns="http://www.w3.org/2000/svg" viewBox="0 0 22 24" id="zip-file">
        <path d="M8.43342 22.2241C12.5549 18.1256 15.7788 14.8493 19.3648 11.3322C20.5487 10.0957 21.2985 8.88549 21.6142 7.70159C22.1668 5.46745 21.3173 3.53279 19.8384 2.01885C18.4177 0.598173 16.8983 -0.072707 15.2803 0.00623302C13.6623 0.085173 12.0641 0.900753 10.4855 2.45297L0.422325 12.5556L2.07981 14.1736L12.143 4.11041C13.1756 3.12867 14.4044 2.20311 15.8131 2.33455C17.9594 2.63587 19.8549 5.26287 19.3648 7.10963C18.7434 8.74811 17.8867 9.49541 16.7011 10.6811C13.0942 14.2787 10.2819 17.0607 6.77601 20.5666C5.45841 21.7706 4.60629 22.0966 3.38217 20.9613C2.75075 20.3299 2.47451 19.7116 2.55343 19.1065C2.64101 18.4005 3.04069 17.9122 3.50053 17.449L12.6955 8.25403C13.1155 7.83323 14.0722 7.02553 14.4713 7.38585C14.7776 8.09627 13.9889 8.77435 13.6032 9.16171L5.15798 17.6069L6.77597 19.2644L15.2606 10.8192C16.722 9.31191 17.7719 7.47001 16.1288 5.76789C14.3115 4.20813 12.3971 5.24943 11.038 6.59663L1.84305 15.7916C0.895945 16.7387 0.356585 17.7648 0.225065 18.8698C0.121305 20.4188 0.819725 21.6623 1.76413 22.6188C2.65183 23.5016 3.61085 23.9907 4.80285 24C6.23596 23.9426 7.64509 22.9987 8.43342 22.2241Z"
              fill="currentColor"></path>
    </symbol>
    <symbol fill="none" xmlns="http://www.w3.org/2000/svg" viewBox="0 0 8 14" id="arrowRigth">
        <path d="M1 13L7 7L1 1" stroke="currentColor" stroke-width="2" stroke-linecap="round"
              stroke-linejoin="round"></path>
    </symbol>
    <symbol fill="none" xmlns="http://www.w3.org/2000/svg" viewBox="0 0 24 24" id="slash">
        <path d="M12 22C17.5228 22 22 17.5228 22 12C22 6.47715 17.5228 2 12 2C6.47715 2 2 6.47715 2 12C2 17.5228 6.47715 22 12 22Z"
              stroke="currentColor" stroke-width="2" stroke-linecap="round" stroke-linejoin="round"/>
        <path d="M4.92969 4.92969L19.0697 19.0697" stroke="currentColor" stroke-width="2" stroke-linecap="round"
              stroke-linejoin="round"/>
    </symbol>
    <symbol fill="none" xmlns="http://www.w3.org/2000/svg" viewBox="0 0 24 24" id="pdf-indicator">
        <path xmlns="http://www.w3.org/2000/svg" fill="#DF3B57"
              d="M20.0297 6.76641C20.1703 6.90703 20.25 7.09687 20.25 7.29609V21.75C20.25 22.1648 19.9148 22.5 19.5 22.5H4.5C4.08516 22.5 3.75 22.1648 3.75 21.75V2.25C3.75 1.83516 4.08516 1.5 4.5 1.5H14.4539C14.6531 1.5 14.8453 1.57969 14.9859 1.72031L20.0297 6.76641ZM18.5203 7.64062L14.1094 3.22969V7.64062H18.5203ZM14.8411 14.9358C14.4853 14.9241 14.107 14.9515 13.6774 15.0052C13.1079 14.6538 12.7245 14.1713 12.4521 13.4623L12.4772 13.3596L12.5062 13.2382C12.607 12.8133 12.6612 12.5032 12.6773 12.1905C12.6895 11.9545 12.6764 11.7368 12.6345 11.535C12.5571 11.0993 12.2489 10.8445 11.8605 10.8288C11.4984 10.8141 11.1656 11.0163 11.0805 11.3297C10.942 11.8364 11.0231 12.5032 11.3168 13.6404C10.9427 14.5322 10.4484 15.5777 10.1168 16.1609C9.67406 16.3891 9.3293 16.5968 9.03961 16.827C8.65758 17.1309 8.41898 17.4434 8.35336 17.7715C8.32148 17.9236 8.36953 18.1223 8.47898 18.2852C8.6032 18.4699 8.79023 18.5899 9.01453 18.6073C9.58055 18.6511 10.2762 18.0675 11.0442 16.7496C11.1213 16.7238 11.2029 16.6966 11.3025 16.6629L11.5814 16.5687C11.7579 16.5091 11.8859 16.4665 12.0124 16.4255C12.5609 16.2469 12.9757 16.1341 13.353 16.0699C14.0088 16.421 14.7668 16.6512 15.2773 16.6512C15.6987 16.6512 15.9834 16.4327 16.0863 16.0889C16.1766 15.787 16.1051 15.4369 15.911 15.2433C15.7104 15.0462 15.3415 14.952 14.8411 14.9358ZM9.02883 17.9456V17.9372L9.03187 17.9292C9.06617 17.8406 9.11019 17.756 9.16313 17.677C9.26344 17.5228 9.40148 17.3606 9.57258 17.1879C9.66445 17.0953 9.76008 17.0051 9.87234 16.9038C9.89742 16.8813 10.0577 16.7386 10.0877 16.7105L10.3495 16.4667L10.1592 16.7698C9.87047 17.2301 9.60938 17.5615 9.38578 17.7776C9.30352 17.8573 9.23109 17.9159 9.1725 17.9536C9.15316 17.9665 9.13268 17.9777 9.11133 17.9869C9.10172 17.9909 9.09328 17.9932 9.08484 17.9939C9.07594 17.995 9.06689 17.9938 9.05859 17.9904C9.04977 17.9867 9.04224 17.9805 9.03694 17.9725C9.03165 17.9645 9.02882 17.9552 9.02883 17.9456ZM11.9805 12.8297L11.9276 12.9234L11.8948 12.8208C11.8221 12.5904 11.7687 12.2433 11.7539 11.9302C11.737 11.5739 11.7654 11.3602 11.8779 11.3602C12.0359 11.3602 12.1083 11.6133 12.1139 11.9941C12.1191 12.3288 12.0663 12.6771 11.9803 12.8297H11.9805ZM11.8444 14.1998L11.8802 14.1049L11.9292 14.194C12.2032 14.6918 12.5588 15.1071 12.9497 15.3966L13.0341 15.4589L12.9312 15.48C12.5484 15.5592 12.192 15.6783 11.7045 15.8749C11.7553 15.8543 11.1977 16.0826 11.0566 16.1367L10.9336 16.1838L10.9992 16.0695C11.2887 15.5655 11.5561 14.9604 11.8441 14.1998H11.8444ZM15.5386 15.9872C15.3544 16.0598 14.9578 15.9949 14.2596 15.6968L14.0824 15.6213L14.2746 15.6073C14.8207 15.5667 15.2074 15.5967 15.4329 15.6792C15.529 15.7144 15.593 15.7587 15.6213 15.8093C15.6363 15.8333 15.6413 15.8621 15.6353 15.8897C15.6294 15.9173 15.6129 15.9415 15.5895 15.9572C15.5746 15.9703 15.5573 15.9805 15.5386 15.9872Z"/>

    </symbol>
    <symbol fill="none" xmlns="http://www.w3.org/2000/svg" viewBox="0 0 24 24" id="word-indicator">
        <path xmlns="http://www.w3.org/2000/svg" fill="#2F80ED"
              d="M20.0297 6.76641C20.1703 6.90703 20.25 7.09687 20.25 7.29609V21.75C20.25 22.1648 19.9148 22.5 19.5 22.5H4.5C4.08516 22.5 3.75 22.1648 3.75 21.75V2.25C3.75 1.83516 4.08516 1.5 4.5 1.5H14.4539C14.6531 1.5 14.8453 1.57969 14.9859 1.72031L20.0297 6.76641ZM18.5203 7.64062L14.1094 3.22969V7.64062H18.5203ZM12 13.268L13.2377 17.8852C13.2537 17.945 13.2891 17.9979 13.3382 18.0356C13.3874 18.0734 13.4476 18.0938 13.5096 18.0938H14.2542C14.3161 18.0938 14.3763 18.0735 14.4255 18.0358C14.4746 17.9982 14.51 17.9454 14.5261 17.8856L16.2691 11.4169C16.2755 11.393 16.2786 11.3684 16.2785 11.3438C16.2785 11.2692 16.2489 11.1976 16.1961 11.1449C16.1434 11.0921 16.0719 11.0625 15.9973 11.0625H15.1636C15.0999 11.0625 15.0382 11.084 14.9883 11.1237C14.9385 11.1633 14.9036 11.2187 14.8894 11.2807L13.8164 15.9471L12.6502 11.2755C12.6349 11.2147 12.5998 11.1607 12.5504 11.1221C12.501 11.0835 12.4401 11.0625 12.3773 11.0625H11.6227C11.5599 11.0625 11.499 11.0835 11.4495 11.1222C11.4001 11.1608 11.365 11.2149 11.3498 11.2758L10.1859 15.9377L9.10547 11.2805C9.09113 11.2186 9.05626 11.1634 9.00656 11.1239C8.95685 11.0843 8.89523 11.0628 8.83172 11.0627H8.00227C7.97765 11.0627 7.95315 11.066 7.92938 11.0723C7.85737 11.0917 7.79602 11.1389 7.75879 11.2035C7.72157 11.2681 7.71152 11.3449 7.73086 11.4169L9.46922 17.8856C9.48529 17.9453 9.52059 17.9981 9.56965 18.0357C9.61871 18.0733 9.6788 18.0937 9.74063 18.0938H10.4904C10.5523 18.0937 10.6125 18.0733 10.6616 18.0356C10.7107 17.9979 10.746 17.945 10.762 17.8852L11.9998 13.268H12Z"/>

    </symbol>
    <symbol fill="none" xmlns="http://www.w3.org/2000/svg" viewBox="0 0 24 24" id="image-indicator">
        <path xmlns="http://www.w3.org/2000/svg" fill="#EE8234"
              d="M14 2H6C5.46957 2 4.96086 2.21071 4.58579 2.58579C4.21071 2.96086 4 3.46957 4 4V20C4 20.5304 4.21071 21.0391 4.58579 21.4142C4.96086 21.7893 5.46957 22 6 22H18C18.5304 22 19.0391 21.7893 19.4142 21.4142C19.7893 21.0391 20 20.5304 20 20V8L14 2ZM9.239 16.446C9.239 17.598 8.688 18 7.801 18C7.591 18 7.315 17.964 7.136 17.903L7.237 17.166C7.364 17.208 7.526 17.238 7.706 17.238C8.09 17.238 8.329 17.064 8.329 16.434V13.891H9.24L9.239 16.446ZM12.533 16.081C12.22 16.374 11.76 16.507 11.22 16.507C11.1 16.507 10.992 16.5 10.908 16.488V17.933H10.002V13.945C10.411 13.8834 10.8244 13.8557 11.238 13.862C11.801 13.862 12.203 13.969 12.472 14.185C12.731 14.389 12.905 14.725 12.905 15.121C12.905 15.517 12.772 15.853 12.533 16.081ZM16.864 17.748C16.584 17.844 16.049 17.976 15.515 17.976C14.778 17.976 14.244 17.79 13.872 17.43C13.501 17.082 13.297 16.555 13.302 15.961C13.309 14.617 14.285 13.85 15.611 13.85C16.132 13.85 16.535 13.953 16.732 14.048L16.541 14.779C16.319 14.683 16.044 14.605 15.6 14.605C14.839 14.605 14.262 15.037 14.262 15.913C14.262 16.746 14.785 17.238 15.533 17.238C15.744 17.238 15.911 17.214 15.984 17.177V16.331H15.36V15.618H16.864V17.748ZM14 9H13V4L18 9H14Z"/>
        <path xmlns="http://www.w3.org/2000/svg" fill="#EE8234"
              d="M11.2852 14.5518C11.0992 14.5518 10.9732 14.5698 10.9082 14.5878V15.7808C10.9852 15.7988 11.0822 15.8038 11.2152 15.8038C11.6992 15.8038 11.9992 15.5578 11.9992 15.1448C11.9992 14.7728 11.7422 14.5518 11.2852 14.5518Z"/>
    </symbol>
    <symbol fill="none" xmlns="http://www.w3.org/2000/svg" viewBox="0 0 24 24" id="box">
        <path d="M12.89 1.45113L20.89 5.45113C21.2233 5.6167 21.5037 5.87195 21.6998 6.18817C21.8959 6.50439 21.9999 6.86904 22 7.24113V16.7711C21.9999 17.1432 21.8959 17.5079 21.6998 17.8241C21.5037 18.1403 21.2233 18.3955 20.89 18.5611L12.89 22.5611C12.6122 22.7002 12.3058 22.7726 11.995 22.7726C11.6843 22.7726 11.3779 22.7002 11.1 22.5611L3.10005 18.5611C2.76718 18.3934 2.4878 18.136 2.29344 17.8179C2.09907 17.4999 1.99745 17.1339 2.00005 16.7611V7.24113C2.00025 6.86904 2.10424 6.50439 2.30033 6.18817C2.49642 5.87195 2.77684 5.6167 3.11005 5.45113L11.11 1.45113C11.3866 1.3137 11.6912 1.24219 12 1.24219C12.3089 1.24219 12.6135 1.3137 12.89 1.45113V1.45113Z"
              stroke="currentColor" stroke-linecap="round" stroke-linejoin="round"/>
        <path d="M2.32031 6.15625L12.0003 10.9963L21.6803 6.15625" stroke="currentColor" stroke-linecap="round"
              stroke-linejoin="round"/>
        <path d="M12 22.76V11" stroke="currentColor" stroke-linecap="round" stroke-linejoin="round"/>
        <path d="M7 3.5L17 8.5" stroke="currentColor" stroke-linecap="round" stroke-linejoin="round"/>
    </symbol>
    <symbol id="open-box" viewBox="0 0 24 24" fill="none" xmlns="http://www.w3.org/2000/svg">
        <path d="M21.0909 22H2.90909C2.66799 22 2.43675 21.9042 2.26627 21.7337C2.09578 21.5632 2 21.332 2 21.0909V5.63636L3.81818 2H20.1818L22 5.63636V21.0909C22 21.332 21.9042 21.5632 21.7337 21.7337C21.5632 21.9042 21.332 22 21.0909 22Z"
              stroke="currentColor" stroke-linecap="round" stroke-linejoin="round"/>
        <path d="M15.8516 13.1328L11.9993 9.28054L8.14702 13.1328" stroke="currentColor" stroke-linecap="round"
              stroke-linejoin="round"/>
        <path d="M12 18.3672L12 9.27628" stroke="currentColor" stroke-linecap="round" stroke-linejoin="round"/>
        <path d="M2 5.63281H22" stroke="currentColor" stroke-linecap="round" stroke-linejoin="round"/>
    </symbol>
    <symbol id="blue-plus" viewBox="0 0 24 24" fill="none" xmlns="http://www.w3.org/2000/svg">
        <path d="M12 22C17.5228 22 22 17.5228 22 12C22 6.47715 17.5228 2 12 2C6.47715 2 2 6.47715 2 12C2 17.5228 6.47715 22 12 22Z"
              stroke="currentColor" stroke-width="2" stroke-linecap="round" stroke-linejoin="round"/>
        <path d="M12 8V16" stroke="currentColor" stroke-width="2" stroke-linecap="round" stroke-linejoin="round"/>
        <path d="M8 12H16" stroke="currentColor" stroke-width="2" stroke-linecap="round" stroke-linejoin="round"/>
    </symbol>
    <symbol id="logo" viewBox="0 0 90 50" fill="none" xmlns="http://www.w3.org/2000/svg">
        <path fill-rule="evenodd" clip-rule="evenodd" d="M18.5114 49.9998H9.62346L22.3878 9.99995H0L2.74348 2.09068C3.1776 0.839151 4.35688 0 5.68156 0H27.5219H27.5282H29.5687H36.4161H58.5348L55.2347 8.06755C54.7566 9.23633 53.6192 9.99995 52.3564 9.99995H33.2158L20.9693 48.2666C20.6351 49.3145 19.6418 50.001 18.5114 49.9998ZM67.306 13.4373H74.2102C75.5465 13.4373 76.7335 14.291 77.1585 15.558L82.4776 31.4138L88.0305 33.6008C89.5748 34.209 90.3693 35.9228 89.8355 37.4944L85.5881 49.9996H56.589L67.306 13.4373ZM37.8609 13.4373H64.4694L61.3223 23.4372H32.0031L34.9434 15.4703C35.3943 14.2486 36.5586 13.4373 37.8609 13.4373ZM60.3705 26.5615H33.4821C32.1701 26.5615 30.9992 27.3849 30.5555 28.6196L27.5891 36.874H57.2184L60.3705 26.5615ZM29.3071 39.9997H56.2725L53.4356 49.9996H23.4909L26.3848 42.0462C26.8318 40.8175 27.9997 39.9997 29.3071 39.9997Z" fill="url(#paint0_linear_0_3)"/>
        <defs>
            <linearGradient id="paint0_linear_0_3" x1="44.904" y1="1.8851e-06" x2="44.904" y2="49.9998" gradientUnits="userSpaceOnUse">
                <stop stop-color="#346E60"/>
                <stop offset="1" stop-color="#F27C4A"/>
            </linearGradient>
        </defs>
    </symbol>
    <symbol id="menuList" viewBox="0 0 24 24" fill="none" xmlns="http://www.w3.org/2000/svg">
        <path d="M17.2796 10.8008H10.3196C9.65721 10.8008 9.59961 11.3372 9.59961 12.0008C9.59961 12.6644 9.65721 13.2008 10.3196 13.2008H17.2796C17.942 13.2008 17.9996 12.6644 17.9996 12.0008C17.9996 11.3372 17.942 10.8008 17.2796 10.8008ZM19.6796 16.8008H10.3196C9.65721 16.8008 9.59961 17.3372 9.59961 18.0008C9.59961 18.6644 9.65721 19.2008 10.3196 19.2008H19.6796C20.342 19.2008 20.3996 18.6644 20.3996 18.0008C20.3996 17.3372 20.342 16.8008 19.6796 16.8008ZM10.3196 7.20078H19.6796C20.342 7.20078 20.3996 6.66438 20.3996 6.00078C20.3996 5.33718 20.342 4.80078 19.6796 4.80078H10.3196C9.65721 4.80078 9.59961 5.33718 9.59961 6.00078C9.59961 6.66438 9.65721 7.20078 10.3196 7.20078ZM6.47961 10.8008H4.31961C3.65721 10.8008 3.59961 11.3372 3.59961 12.0008C3.59961 12.6644 3.65721 13.2008 4.31961 13.2008H6.47961C7.14201 13.2008 7.19961 12.6644 7.19961 12.0008C7.19961 11.3372 7.14201 10.8008 6.47961 10.8008ZM6.47961 16.8008H4.31961C3.65721 16.8008 3.59961 17.3372 3.59961 18.0008C3.59961 18.6644 3.65721 19.2008 4.31961 19.2008H6.47961C7.14201 19.2008 7.19961 18.6644 7.19961 18.0008C7.19961 17.3372 7.14201 16.8008 6.47961 16.8008ZM6.47961 4.80078H4.31961C3.65721 4.80078 3.59961 5.33718 3.59961 6.00078C3.59961 6.66438 3.65721 7.20078 4.31961 7.20078H6.47961C7.14201 7.20078 7.19961 6.66438 7.19961 6.00078C7.19961 5.33718 7.14201 4.80078 6.47961 4.80078Z" fill="currentColor"/>
    </symbol>
    <svg id="menu" viewBox="0 0 24 24" fill="none" xmlns="http://www.w3.org/2000/svg">
        <path d="M20.25 4.5H3.75C3.33579 4.5 3 4.83579 3 5.25V18.75C3 19.1642 3.33579 19.5 3.75 19.5H20.25C20.6642 19.5 21 19.1642 21 18.75V5.25C21 4.83579 20.6642 4.5 20.25 4.5Z" stroke="currentColor" stroke-width="1.5" stroke-linecap="round" stroke-linejoin="round"/>
        <path d="M7.125 9H16.875" stroke="currentColor" stroke-width="1.5" stroke-linecap="round" stroke-linejoin="round"/>
        <path d="M7.125 12H16.875" stroke="currentColor" stroke-width="1.5" stroke-linecap="round" stroke-linejoin="round"/>
        <path d="M7.125 15H16.875" stroke="currentColor" stroke-width="1.5" stroke-linecap="round" stroke-linejoin="round"/>
    </svg>
    <symbol id="comment" width="30" height="30" viewBox="0 0 30 30" fill="none" xmlns="http://www.w3.org/2000/svg">
        <path d="M5.32014 20.7419C3.9243 18.3869 3.43606 15.6034 3.94706 12.914C4.45807 10.2245 5.93318 7.81404 8.09547 6.13511C10.2578 4.45617 12.9585 3.62423 15.6907 3.79546C18.423 3.96668 20.9987 5.12931 22.9345 7.06507C24.8702 9.00083 26.0329 11.5766 26.2041 14.3088C26.3753 17.041 25.5434 19.7418 23.8644 21.9041C22.1855 24.0664 19.7751 25.5415 17.0856 26.0525C14.3961 26.5635 11.6126 26.0752 9.25764 24.6794V24.6794L5.36702 25.781C5.20761 25.8276 5.03861 25.8305 4.87771 25.7893C4.71681 25.7482 4.56994 25.6645 4.45251 25.547C4.33507 25.4296 4.25139 25.2827 4.21023 25.1218C4.16907 24.9609 4.17196 24.7919 4.21858 24.6325L5.32014 20.7419Z" stroke="#DF3B57" stroke-width="2" stroke-linecap="round" stroke-linejoin="round"/>
        <path d="M15 16.4062C15.7767 16.4062 16.4062 15.7767 16.4062 15C16.4062 14.2233 15.7767 13.5938 15 13.5938C14.2233 13.5938 13.5938 14.2233 13.5938 15C13.5938 15.7767 14.2233 16.4062 15 16.4062Z" fill="#DF3B57"/>
        <path d="M9.375 16.4062C10.1517 16.4062 10.7812 15.7767 10.7812 15C10.7812 14.2233 10.1517 13.5938 9.375 13.5938C8.59835 13.5938 7.96875 14.2233 7.96875 15C7.96875 15.7767 8.59835 16.4062 9.375 16.4062Z" fill="#DF3B57"/>
        <path d="M20.625 16.4062C21.4017 16.4062 22.0312 15.7767 22.0312 15C22.0312 14.2233 21.4017 13.5938 20.625 13.5938C19.8483 13.5938 19.2188 14.2233 19.2188 15C19.2188 15.7767 19.8483 16.4062 20.625 16.4062Z" fill="#DF3B57"/>
    </symbol>
    <symbol viewBox="0 0 24 24" fill="none" xmlns="http://www.w3.org/2000/svg" id="book">
        <path d="M4.5 19.0052C4.5 18.3422 4.76339 17.7063 5.23223 17.2375C5.70107 16.7686 6.33696 16.5052 7 16.5052L19.5002 16.5014M7 2.50678L19.5002 2.50293V21.4991L7 21.5029C6.33696 21.5029 5.70107 21.2395 5.23223 20.7707C4.76339 20.3019 4.5 19.666 4.5 19.0029V5.00678C4.5 4.34374 4.76339 3.70786 5.23223 3.23902C5.70107 2.77018 6.33696 2.50678 7 2.50678Z" stroke="currentColor" stroke-linecap="round" stroke-linejoin="round"/>
    </symbol>
    <symbol id="folder" viewBox="0 0 24 24" fill="none" xmlns="http://www.w3.org/2000/svg">
        <path d="M4 20H20C20.5304 20 21.0391 19.7893 21.4142 19.4142C21.7893 19.0391 22 18.5304 22 18V8C22 7.46957 21.7893 6.96086 21.4142 6.58579C21.0391 6.21071 20.5304 6 20 6H12.07C11.7406 5.9983 11.4167 5.91525 11.1271 5.75824C10.8375 5.60123 10.5912 5.37512 10.41 5.1L9.59 3.9C9.40882 3.62488 9.1625 3.39877 8.8729 3.24176C8.58331 3.08475 8.25941 3.0017 7.93 3H4C3.46957 3 2.96086 3.21071 2.58579 3.58579C2.21071 3.96086 2 4.46957 2 5V18C2 19.1 2.9 20 4 20Z" stroke="currentColor" stroke-width="1.5" stroke-linecap="round" stroke-linejoin="round"/>
    </symbol>
    <symbol id="drop" width="24" height="24" viewBox="0 0 24 24" fill="none" xmlns="http://www.w3.org/2000/svg">
        <path d="M14.002 4.79688H22.002V6.79688H14.002V4.79688ZM14.002 10.2969H22.002V12.2969H14.002V10.2969ZM14.002 15.7969H22.002V17.7969H14.002V15.7969ZM2.00195 11.2969C2.00195 14.8769 4.92195 17.7969 8.50195 17.7969H9.00195V19.7969L12.002 16.7969L9.00195 13.7969V15.7969H8.50195C6.02195 15.7969 4.00195 13.7769 4.00195 11.2969C4.00195 8.81687 6.02195 6.79688 8.50195 6.79688H12.002V4.79688H8.50195C4.92195 4.79688 2.00195 7.71688 2.00195 11.2969Z" fill="#BDBDBD"/>
    </symbol>
    <symbol id="scan" viewBox="0 0 50 50" fill="none" xmlns="http://www.w3.org/2000/svg">
        <path d="M39.0625 17.1875H10.9375V11.9375C10.9375 11.3852 11.3852 10.9375 11.9375 10.9375H38.0625C38.6148 10.9375 39.0625 11.3852 39.0625 11.9375V17.1875ZM26.5625 35.9375C26.5625 37.0312 26.7656 38.0781 27.1094 39.0625H13.5C12.9477 39.0625 12.5 38.6148 12.5 38.0625V18.75H37.5V26.7031C36.9844 26.625 36.4688 26.5625 35.9375 26.5625C30.7656 26.5625 26.5625 30.7656 26.5625 35.9375ZM29.6875 26.5625V24.2188C29.6875 23.7812 29.3438 23.4375 28.9062 23.4375H21.0938C20.6562 23.4375 20.3125 23.7812 20.3125 24.2188V26.5625H29.6875ZM37.5 34.375V29.6875H34.375V34.375H29.6875V37.5H34.375V42.1875H37.5V37.5H42.1875V34.375H37.5Z" fill="#009E61"/>
        <path d="M34.1146 46.875H40.4948C42.1869 46.875 43.8098 46.2028 45.0063 45.0063C46.2028 43.8098 46.875 42.1869 46.875 40.4948V34.1146M46.875 15.8854V9.50521C46.875 7.81307 46.2028 6.19024 45.0063 4.99372C43.8098 3.7972 42.1869 3.125 40.4948 3.125H34.1146M15.8854 46.875H9.50521C7.81307 46.875 6.19024 46.2028 4.99372 45.0063C3.7972 43.8098 3.125 42.1869 3.125 40.4948V34.1146M3.125 15.8854V9.50521C3.125 7.81307 3.7972 6.19024 4.99372 4.99372C6.19024 3.7972 7.81307 3.125 9.50521 3.125H15.8854" stroke="#009E61" stroke-linecap="round" stroke-linejoin="round"/>
    </symbol>
    <symbol id="none" viewBox="0 0 24 24" fill="none" xmlns="http://www.w3.org/2000/svg">
        <path d="M12 22C17.5228 22 22 17.5228 22 12C22 6.47715 17.5228 2 12 2C6.47715 2 2 6.47715 2 12C2 17.5228 6.47715 22 12 22Z" stroke="black" stroke-width="2" stroke-linecap="round" stroke-linejoin="round"/>
        <path d="M4.92969 4.92969L19.0697 19.0697" stroke="black" stroke-width="2" stroke-linecap="round" stroke-linejoin="round"/>
    </symbol>
    <symbol id="found" viewBox="0 0 24 24" fill="none" xmlns="http://www.w3.org/2000/svg">
        <g clip-path="url(#clip0_15257_99993)">
            <path d="M10.8002 20.3992C16.1021 20.3992 20.4002 16.1012 20.4002 10.7992C20.4002 5.49728 16.1021 1.19922 10.8002 1.19922C5.49826 1.19922 1.2002 5.49728 1.2002 10.7992C1.2002 16.1012 5.49826 20.3992 10.8002 20.3992Z" stroke="#009E61" stroke-width="2.4" stroke-linecap="round" stroke-linejoin="round"/>
            <path d="M22.8001 22.7981L17.5801 17.5781" stroke="#009E61" stroke-width="2.4" stroke-linecap="round" stroke-linejoin="round"/>
            <path d="M14.4002 8.39844L9.4502 13.3484L7.2002 11.0984" stroke="#009E61" stroke-width="2.4" stroke-linecap="round" stroke-linejoin="round"/>
        </g>
        <defs>
            <clipPath id="clip0_15257_99993">
                <rect width="24" height="24" fill="white"/>
            </clipPath>
        </defs>
    </symbol>
    <symbol id="check" width="24" height="24" viewBox="0 0 24 24" fill="none" xmlns="http://www.w3.org/2000/svg">
        <path d="M20 6L9 17L4 12" stroke="#0B6BE6" stroke-width="2" stroke-linecap="round" stroke-linejoin="round"/>
    </symbol>
    <symbol id="map" width="17" height="16" viewBox="0 0 17 16" fill="none" xmlns="http://www.w3.org/2000/svg">
        <path d="M8.08985 1C6.63169 1.00172 5.23374 1.58174 4.20266 2.61281C3.17158 3.64389 2.59157 5.04184 2.58985 6.5C2.5881 7.69161 2.97734 8.85089 3.69785 9.8C3.69785 9.8 3.84785 9.9975 3.87235 10.026L8.08985 15L12.3093 10.0235C12.3313 9.997 12.4818 9.8 12.4818 9.8L12.4823 9.7985C13.2025 8.84981 13.5916 7.69107 13.5898 6.5C13.5881 5.04184 13.0081 3.64389 11.977 2.61281C10.946 1.58174 9.54801 1.00172 8.08985 1ZM8.08985 8.5C7.69429 8.5 7.30761 8.3827 6.97871 8.16294C6.64981 7.94318 6.39347 7.63082 6.24209 7.26537C6.09072 6.89991 6.05111 6.49778 6.12828 6.10982C6.20545 5.72186 6.39593 5.36549 6.67564 5.08579C6.95534 4.80608 7.31171 4.6156 7.69967 4.53843C8.08763 4.46126 8.48976 4.50087 8.85522 4.65224C9.22067 4.80362 9.53303 5.05996 9.75279 5.38886C9.97255 5.71776 10.0898 6.10444 10.0898 6.5C10.0892 7.03023 9.87826 7.53855 9.50333 7.91348C9.1284 8.28841 8.62008 8.49934 8.08985 8.5Z" fill="#EE8234"/>
    </symbol>
    <symbol id="arrowRightLong" width="14" height="8" viewBox="0 0 14 8" fill="none" xmlns="http://www.w3.org/2000/svg">
        <path d="M1 3.5C0.723858 3.5 0.5 3.72386 0.5 4C0.5 4.27614 0.723858 4.5 1 4.5V3.5ZM13.3536 4.35355C13.5488 4.15829 13.5488 3.84171 13.3536 3.64645L10.1716 0.464466C9.97631 0.269204 9.65973 0.269204 9.46447 0.464466C9.2692 0.659728 9.2692 0.976311 9.46447 1.17157L12.2929 4L9.46447 6.82843C9.2692 7.02369 9.2692 7.34027 9.46447 7.53553C9.65973 7.7308 9.97631 7.7308 10.1716 7.53553L13.3536 4.35355ZM1 4.5L13 4.5V3.5L1 3.5V4.5Z" fill="black"/>
    </symbol>
    <symbol id="density" width="16" height="16" viewBox="0 0 16 16" fill="none" xmlns="http://www.w3.org/2000/svg">
        <path d="M8 15C11.866 15 15 11.866 15 8C15 4.13401 11.866 1 8 1C4.13401 1 1 4.13401 1 8C1 11.866 4.13401 15 8 15Z" stroke="#9795A4" stroke-width="1.5" stroke-linecap="round" stroke-linejoin="round"/>
        <path d="M6.87988 12.5771H5C5.16406 11.7979 5.24609 10.9342 5.24609 9.98633V7.31348C5.24609 6.33822 5.27572 5.64551 5.33496 5.23535C5.39421 4.82064 5.54688 4.44466 5.79297 4.10742C6.03906 3.76562 6.37174 3.49674 6.79102 3.30078C7.21029 3.10026 7.70703 3 8.28125 3C8.96029 3 9.49805 3.1276 9.89453 3.38281C10.291 3.63802 10.6055 4.02083 10.8379 4.53125C11.0749 5.03711 11.1934 5.63639 11.1934 6.3291C11.1934 7.44564 10.9245 8.30013 10.3867 8.89258C9.85352 9.48047 9.22917 9.77441 8.51367 9.77441C7.92578 9.77441 7.47461 9.54883 7.16016 9.09766C7.14193 10.5651 7.0485 11.7249 6.87988 12.5771ZM7.16016 8.41406C7.47005 8.93815 7.81413 9.2002 8.19238 9.2002C8.55697 9.2002 8.82129 8.98145 8.98535 8.54395C9.14941 8.10189 9.23145 7.38867 9.23145 6.4043C9.23145 4.44922 8.83268 3.47168 8.03516 3.47168C7.69336 3.47168 7.46094 3.58561 7.33789 3.81348C7.2194 4.03678 7.16016 4.44466 7.16016 5.03711V8.41406Z" fill="#9795A4"/>
    </symbol>
    <symbol id="question" viewBox="0 0 16 16" fill="none" xmlns="http://www.w3.org/2000/svg">
        <path d="M8 15C11.866 15 15 11.866 15 8C15 4.13401 11.866 1 8 1C4.13401 1 1 4.13401 1 8C1 11.866 4.13401 15 8 15Z" stroke="currentColor" stroke-width="1.5" stroke-linecap="round" stroke-linejoin="round"/>
        <path d="M8 12.5C8.46599 12.5 8.84375 12.1222 8.84375 11.6562C8.84375 11.1903 8.46599 10.8125 8 10.8125C7.53401 10.8125 7.15625 11.1903 7.15625 11.6562C7.15625 12.1222 7.53401 12.5 8 12.5Z" fill="currentColor"/>
        <path d="M8 9.125V8.5625C8.38938 8.5625 8.77002 8.44703 9.09378 8.23071C9.41754 8.01438 9.66988 7.7069 9.81889 7.34716C9.9679 6.98742 10.0069 6.59157 9.93092 6.20967C9.85496 5.82777 9.66745 5.47697 9.39212 5.20163C9.11678 4.9263 8.76598 4.73879 8.38408 4.66283C8.00218 4.58686 7.60633 4.62585 7.24659 4.77486C6.88685 4.92387 6.57937 5.17621 6.36304 5.49997C6.14672 5.82373 6.03125 6.20437 6.03125 6.59375" stroke="currentColor" stroke-width="1.5" stroke-linecap="round" stroke-linejoin="round"/>
    </symbol>
    <symbol id="exchange" width="30" height="21" viewBox="0 0 30 21" fill="none" xmlns="http://www.w3.org/2000/svg">
        <path d="M6.1875 14.4375L3.5625 17.0625M3.5625 17.0625L0.9375 14.4375M3.5625 17.0625V3.9375M8.8125 6.5625L11.4375 3.9375M11.4375 3.9375L14.0625 6.5625M11.4375 3.9375V17.0625" stroke="white" stroke-linecap="round" stroke-linejoin="round"/>
        <path d="M25 3V4.73077M25 16.2692V18M28.5 7.61538C28.5 7.23657 28.4353 6.86147 28.3097 6.51149C28.1841 6.16151 27.9999 5.84351 27.7678 5.57565C27.5356 5.30779 27.26 5.09531 26.9567 4.95035C26.6534 4.80538 26.3283 4.73077 26 4.73077H23.75C23.087 4.73077 22.4511 5.03468 21.9822 5.57565C21.5134 6.11662 21.25 6.85034 21.25 7.61538C21.25 8.38043 21.5134 9.11415 21.9822 9.65512C22.4511 10.1961 23.087 10.5 23.75 10.5H26.5C27.163 10.5 27.7989 10.8039 28.2678 11.3449C28.7366 11.8859 29 12.6196 29 13.3846C29 14.1497 28.7366 14.8834 28.2678 15.4243C27.7989 15.9653 27.163 16.2692 26.5 16.2692H23.5C22.837 16.2692 22.2011 15.9653 21.7322 15.4243C21.2634 14.8834 21 14.1497 21 13.3846" stroke="white" stroke-linecap="round" stroke-linejoin="round"/>
    </symbol>
    <symbol id="threeSquare" width="24" height="24" viewBox="0 0 24 24" fill="none" xmlns="http://www.w3.org/2000/svg">
        <path d="M10.5 20V12C10.5 11.1716 11.1716 10.5 12 10.5H20C20.8284 10.5 21.5 11.1716 21.5 12V20C21.5 20.8284 20.8284 21.5 20 21.5L12 21.5C11.1716 21.5 10.5 20.8284 10.5 20Z" fill="white" stroke="#0B6BE6"/>
        <path d="M6.5 16V8C6.5 7.17157 7.17157 6.5 8 6.5H16C16.8284 6.5 17.5 7.17157 17.5 8V16C17.5 16.8284 16.8284 17.5 16 17.5L8 17.5C7.17157 17.5 6.5 16.8284 6.5 16Z" fill="white" stroke="#0B6BE6"/>
        <path d="M2.75 12V4C2.75 3.30964 3.30964 2.75 4 2.75H12C12.6904 2.75 13.25 3.30964 13.25 4V12C13.25 12.6904 12.6904 13.25 12 13.25L4 13.25C3.30964 13.25 2.75 12.6904 2.75 12Z" fill="#0B6BE6" stroke="#0B6BE6" stroke-width="1.5"/>
    </symbol>
    <symbol id="mapMedium" width="21" height="21" viewBox="0 0 21 21" fill="none" xmlns="http://www.w3.org/2000/svg">
        <path d="M10.5625 1C8.55753 1.00226 6.63536 1.76353 5.21763 3.11682C3.79989 4.47011 3.00237 6.30491 3.00001 8.21875C2.99761 9.78274 3.53281 11.3043 4.52351 12.55C4.52351 12.55 4.72976 12.8092 4.76345 12.8466L10.5625 19.375L16.3643 12.8433C16.3946 12.8086 16.6015 12.55 16.6015 12.55L16.6022 12.548C17.5924 11.3029 18.1274 9.78202 18.125 8.21875C18.1226 6.30491 17.3251 4.47011 15.9074 3.11682C14.4897 1.76353 12.5675 1.00226 10.5625 1ZM10.5625 10.8438C10.0186 10.8438 9.48693 10.6898 9.03469 10.4014C8.58246 10.1129 8.22998 9.70295 8.02184 9.22329C7.8137 8.74364 7.75924 8.21584 7.86535 7.70664C7.97146 7.19744 8.23337 6.72971 8.61796 6.36259C9.00256 5.99548 9.49256 5.74547 10.026 5.64419C10.5595 5.5429 11.1124 5.59489 11.6149 5.79357C12.1174 5.99225 12.5469 6.3287 12.849 6.76038C13.1512 7.19206 13.3125 7.69957 13.3125 8.21875C13.3116 8.91468 13.0216 9.58185 12.506 10.0739C11.9905 10.566 11.2916 10.8429 10.5625 10.8438Z" fill="#EE8234"/>
    </symbol>
    <symbol id="writePen" width="24" height="24" viewBox="0 0 24 24" fill="none" xmlns="http://www.w3.org/2000/svg">
        <path d="M12 15H9V12L18 3L21 6L12 15Z" stroke="white" stroke-width="1.5" stroke-linecap="round" stroke-linejoin="round"/>
        <path d="M15.75 5.25L18.75 8.25" stroke="white" stroke-width="1.5" stroke-linecap="round" stroke-linejoin="round"/>
        <path d="M20.25 11.25V19.5C20.25 19.6989 20.171 19.8897 20.0303 20.0303C19.8897 20.171 19.6989 20.25 19.5 20.25H4.5C4.30109 20.25 4.11032 20.171 3.96967 20.0303C3.82902 19.8897 3.75 19.6989 3.75 19.5V4.5C3.75 4.30109 3.82902 4.11032 3.96967 3.96967C4.11032 3.82902 4.30109 3.75 4.5 3.75H12.75" stroke="white" stroke-width="1.5" stroke-linecap="round" stroke-linejoin="round"/>
    </symbol>
    <symbol id="clock" width="24" height="24" viewBox="0 0 24 24" fill="none" xmlns="http://www.w3.org/2000/svg">
        <path d="M12 20.25C16.5563 20.25 20.25 16.5563 20.25 12C20.25 7.44365 16.5563 3.75 12 3.75C7.44365 3.75 3.75 7.44365 3.75 12C3.75 16.5563 7.44365 20.25 12 20.25Z" stroke="white" stroke-width="1.5" stroke-miterlimit="10"/>
        <path d="M12 11.9996L15.7125 8.28711" stroke="white" stroke-width="1.5" stroke-linecap="round" stroke-linejoin="round"/>
        <path d="M9.75 0.75H14.25" stroke="white" stroke-width="1.5" stroke-linecap="round" stroke-linejoin="round"/>
    </symbol>
    <symbol id="hourglass" width="24" height="24" viewBox="0 0 24 24" fill="none" xmlns="http://www.w3.org/2000/svg">
        <path d="M12 12L6.3 7.725C6.20738 7.65464 6.13217 7.56395 6.08016 7.45992C6.02814 7.35589 6.00072 7.24131 6 7.125V3.75C6 3.55109 6.07902 3.36032 6.21967 3.21967C6.36032 3.07902 6.55109 3 6.75 3H17.25C17.4489 3 17.6397 3.07902 17.7803 3.21967C17.921 3.36032 18 3.55109 18 3.75V7.0875C17.9993 7.20381 17.9719 7.31839 17.9198 7.42242C17.8678 7.52645 17.7926 7.61714 17.7 7.6875L12 12Z" stroke="white" stroke-width="1.5" stroke-linecap="round" stroke-linejoin="round"/>
        <path d="M12 12L6.3 16.275C6.20738 16.3454 6.13217 16.436 6.08016 16.5401C6.02814 16.6441 6.00072 16.7587 6 16.875V20.25C6 20.4489 6.07902 20.6397 6.21967 20.7803C6.36032 20.921 6.55109 21 6.75 21H17.25C17.4489 21 17.6397 20.921 17.7803 20.7803C17.921 20.6397 18 20.4489 18 20.25V16.9125C17.9993 16.7962 17.9719 16.6816 17.9198 16.5776C17.8678 16.4735 17.7926 16.3829 17.7 16.3125L12 12Z" stroke="white" stroke-width="1.5" stroke-linecap="round" stroke-linejoin="round"/>
    </symbol>
    <symbol id="chevronRightThin" width="16" height="16" viewBox="0 0 16 16" fill="none" xmlns="http://www.w3.org/2000/svg">
        <path d="M2.00049 8.00065H13.6668M13.6668 8.00065L9.00016 3.33398M13.6668 8.00065L9.00016 12.6673" stroke="#0B6BE6" stroke-linecap="round" stroke-linejoin="round"/>
    </symbol>
    <symbol id="cycle"  viewBox="0 0 24 24" fill="none" xmlns="http://www.w3.org/2000/svg">
        <path d="M15.7568 10.0702H19M19 10.0702V6.79718M19 10.0702L16.7027 7.75864C16.1511 7.20114 15.496 6.75885 14.7748 6.45709C14.0537 6.15532 13.2807 6 12.5 6C11.7193 6 10.9463 6.15532 10.2252 6.45709C9.50403 6.75885 8.84892 7.20114 8.2973 7.75864M9.24324 13.9298H6M6 13.9298V17.2028M6 13.9298L8.2973 16.2414C8.84892 16.7989 9.50403 17.2411 10.2252 17.5429C10.9463 17.8447 11.7193 18 12.5 18C13.2807 18 14.0537 17.8447 14.7748 17.5429C15.496 17.2411 16.1511 16.7989 16.7027 16.2414" stroke="currentColor" stroke-width="1.5" stroke-linecap="round" stroke-linejoin="round"/>
    </symbol>
    <symbol id="expand" width="24" height="24" viewBox="0 0 24 24" fill="none" xmlns="http://www.w3.org/2000/svg">
        <path d="M16.5 3H21M21 3V7.5M21 3L14.7 9.3M7.5 21H3M3 21V16.5M3 21L9.3 14.7M21 16.5V21M21 21H16.5M21 21L14.7 14.7M3 7.5V3M3 3H7.5M3 3L9.3 9.3" stroke="#0B6BE6" stroke-width="1.5" stroke-linecap="round" stroke-linejoin="round"/>
    </symbol>
    <symbol id="shrink" width="24" height="24" viewBox="0 0 24 24" fill="none" xmlns="http://www.w3.org/2000/svg">
        <path d="M19.2 9.3H14.7M14.7 9.3V4.8M14.7 9.3L21 3M4.8 14.7H9.3M9.3 14.7V19.2M9.3 14.7L3 21M14.7 19.2V14.7M14.7 14.7H19.2M14.7 14.7L21 21M9.3 4.8V9.3M9.3 9.3H4.8M9.3 9.3L3 3" stroke="#0B6BE6" stroke-width="1.5" stroke-linecap="round" stroke-linejoin="round"/>
    </symbol>
</svg>
